<svg width="58" height="60" viewBox="0 0 58 60" fill="none" xmlns="http://www.w3.org/2000/svg">
<path d="M41.1358 59.0994C34.2275 58.8838 29.0064 55.9163 23.9745 52.6048C15.2445 46.8547 8.40088 39.2101 3.83183 29.6146C2.21424 26.221 1.19391 22.4628 0.337831 18.7612C-0.304226 15.9939 0.626508 13.3653 2.70199 11.3065C4.07072 9.94601 5.34986 8.48794 6.78329 7.20443C8.79905 5.39725 10.8646 5.39211 12.7708 7.26604C15.2146 9.67391 17.5689 12.1845 19.8882 14.7207C21.4312 16.4047 21.4112 18.2375 19.923 19.9831C19.0023 21.0664 18.1164 22.2266 17.0214 23.1046C15.1748 24.5883 14.926 26.1439 16.1703 28.1513C20.0126 34.3379 24.8256 39.4668 31.067 43.112C32.4158 43.8975 33.4809 43.9078 34.546 42.5986C35.4967 41.428 36.5867 40.3652 37.6717 39.3179C39.7572 37.3054 41.743 37.2591 43.7986 39.282C46.1229 41.5717 48.4075 43.9078 50.5975 46.331C52.4689 48.4001 52.6083 50.3921 50.6323 52.3892C48.3279 54.7149 45.6999 56.7223 43.0969 58.7041C42.4448 59.2021 41.3449 59.0635 41.1358 59.0994Z" fill="black"/>
<path d="M57.1374 27.7817C53.2602 28.6955 53.3548 28.6596 52.2399 25.0144C49.1441 14.9055 42.5095 8.47251 32.7194 5.49476C29.0611 4.38067 29.0263 4.5039 29.9371 0.442871C41.8027 0.951142 56.0375 13.4988 57.1374 27.7817Z" fill="black"/>
<path d="M29.0015 16.3277C28.8024 11.707 28.8572 11.5427 32.6946 12.8519C39.9911 15.3419 44.2217 20.6967 45.8344 28.3824C41.9671 29.5735 41.8028 29.5992 40.668 26.4777C38.7717 21.2666 35.0985 18.2324 30.0566 16.7179C29.7381 16.6254 29.4345 16.492 29.0015 16.3277Z" fill="black"/>
</svg>
