<svg width="47" height="45" viewBox="0 0 47 45" fill="none" xmlns="http://www.w3.org/2000/svg">
<path d="M39.1789 24.4125H10.9177L9.11408 9.43942H27.3646V5.69615H8.66175L8.58125 5.03733C8.41607 3.67216 7.74378 2.41359 6.69178 1.50013C5.63977 0.586681 4.28116 0.0818233 2.87342 0.0812378L0.53125 0.0812378V3.82451H2.87342C3.34287 3.82457 3.79598 3.99288 4.1468 4.2975C4.49761 4.60213 4.72174 5.02189 4.77667 5.47717L7.81458 30.6844C7.97932 32.0499 8.65143 33.3089 9.70348 34.2227C10.7555 35.1366 12.1144 35.6417 13.5224 35.6423H38.8646V31.8991H13.5224C13.0527 31.899 12.5993 31.7304 12.2485 31.4254C11.8976 31.1204 11.6737 30.7002 11.6192 30.2445L11.3681 28.1558H42.3836L44.1086 18.7976H40.2158L39.1789 24.4125Z" fill="#003066"/>
<path d="M13.9479 45.0005C16.065 45.0005 17.7812 43.3246 17.7812 41.2573C17.7812 39.1899 16.065 37.514 13.9479 37.514C11.8308 37.514 10.1146 39.1899 10.1146 41.2573C10.1146 43.3246 11.8308 45.0005 13.9479 45.0005Z" fill="#003066"/>
<path d="M33.1146 45.0005C35.2317 45.0005 36.9479 43.3246 36.9479 41.2573C36.9479 39.1899 35.2317 37.514 33.1146 37.514C30.9975 37.514 29.2812 39.1899 29.2812 41.2573C29.2812 43.3246 30.9975 45.0005 33.1146 45.0005Z" fill="#003066"/>
<path d="M40.7813 5.69615V0.0812378H36.9479V5.69615H31.1979V9.43942H36.9479V15.0543H40.7813V9.43942H46.5313V5.69615H40.7813Z" fill="#003066"/>
</svg>
