<svg width="63" height="63" viewBox="0 0 87 85" fill="none" xmlns="http://www.w3.org/2000/svg">
<path d="M21.0512 20.4347L21.1817 22.7328H24.2384C41.3389 22.7328 58.4342 22.6691 75.5297 22.772C81.2616 22.8063 86.341 27.123 86.1302 32.9931C85.9495 38.0449 81.8087 42.3372 76.5185 42.3568C59.1972 42.4303 41.8859 42.3862 24.5446 42.3911H21.4327C20.8555 44.9439 21.2319 45.3947 23.862 45.3996C41.0327 45.3996 58.2034 45.4633 75.3741 45.3555C79.1535 45.3555 82.0346 46.4972 84.2681 49.4616C85.5348 51.0907 86.2019 53.089 86.1619 55.1339C86.1218 57.1788 85.3768 59.1507 84.0473 60.7313C81.879 63.4263 79.2188 64.5728 75.6602 64.3915C71.1429 64.1662 66.6557 64.3916 62.1535 64.3034C60.206 64.2544 59.3227 64.8815 59.3729 66.8219C59.4331 69.2718 59.3729 71.7218 59.3729 73.5249C60.8234 74.9312 62.0882 75.7544 62.7809 76.9058C64.904 80.424 62.7357 84.0107 58.5698 84.0744C55.9765 84.1103 53.3816 84.1103 50.785 84.0744C48.692 84.0401 46.9302 82.7318 46.6492 81.0805C46.0218 77.4056 46.8298 75.6368 49.2591 74.5931C49.6409 74.3788 49.9691 74.0842 50.22 73.7309C50.4709 73.3775 50.6381 72.9741 50.7097 72.5499C50.9004 70.1783 50.7549 67.7872 50.8101 65.4058C50.9205 61.0939 53.5405 58.2667 57.7968 56.9682C62.9114 55.4101 68.0912 56.5615 73.2158 56.1598C74.1293 56.0912 75.103 56.292 75.9463 56.0373C76.6188 55.8364 77.1408 55.1406 77.7331 54.6653L77.3567 53.9793C76.3076 53.9205 75.2586 53.8127 74.2096 53.8127C57.422 53.8127 40.6311 53.8127 23.8369 53.8127C18.8177 53.8127 15.1085 51.7008 12.6993 47.4428C10.6113 43.7532 13.427 36.8199 17.8088 35.1931C19.5022 34.5627 21.2968 34.2309 23.1091 34.2132C40.1292 34.1397 57.1493 34.1789 74.1695 34.1446C75.4193 34.1446 77.442 34.713 77.4068 32.7481C77.3717 30.7833 75.3992 31.1507 73.9938 31.1507C56.9737 31.1507 39.9535 31.0282 22.9384 31.2144C18.0698 31.2683 15.0382 29.0585 12.7495 25.3346C11.1684 22.7768 12.9753 16.0934 15.5251 14.2364C17.5497 12.722 20.0421 11.9254 22.5921 11.9775C39.6926 12.0559 56.788 12.0167 73.8834 12.0118C75.2988 12.0118 77.2964 12.2715 77.3968 10.4978C77.4972 8.35652 75.3339 9.0278 74.044 9.0278C53.666 8.9886 33.288 8.9886 12.9101 9.0278C9.28119 9.0278 9.231 9.08659 9.22598 12.6684C9.22598 26.2264 9.28118 39.7892 9.17578 53.3374C9.17578 55.5522 10.0039 56.1843 12.0417 56.1598C16.6243 56.1108 21.2018 56.1304 25.7793 56.1598C29.9302 56.1892 33.7749 57.1005 35.9984 60.8783C37.0023 62.5541 37.454 64.568 37.8906 66.4887C38.1667 67.699 37.8907 69.0121 37.9609 70.2763C38.0362 72.1873 37.2482 74.2354 40.2045 75.2301C42.0064 75.8377 42.7141 79.1059 42.0465 80.7131C41.1581 82.8445 39.7026 84.1724 37.1578 84.0989C34.7135 84.0303 32.2691 84.0989 29.8298 84.0989C27.541 84.0989 25.5384 82.7416 25.2222 81.056C24.5697 77.5673 25.4029 75.8132 28.0329 74.6078C28.3632 74.4233 28.6483 74.1708 28.8684 73.8679C29.0886 73.565 29.2385 73.2189 29.3078 72.8537C29.4442 70.9209 29.4576 68.9817 29.348 67.0473C29.2727 65.2343 28.3943 64.3034 26.3364 64.3328C20.6146 64.416 14.8927 64.3671 9.16575 64.3328C6.08898 64.3328 2.60564 61.6966 1.83771 58.7126C1.27738 56.7557 0.957256 54.7408 0.884061 52.7102C0.803754 38.8534 0.884053 24.9916 0.828842 11.1347C0.803746 5.06379 5.22566 0.776381 11.5097 0.80088C32.9518 0.882545 54.3971 0.882545 75.8459 0.80088C77.3067 0.775591 78.756 1.05731 80.0955 1.6269C81.435 2.19649 82.6333 3.04062 83.6092 4.10208C84.5851 5.16354 85.3158 6.41748 85.7516 7.77884C86.1874 9.14021 86.3183 10.5772 86.1352 11.9922C85.7739 15.1673 82.4562 19.0088 79.2589 19.5821C76.7636 20.0867 74.2273 20.3736 71.6799 20.4396C55.8845 20.518 40.084 20.4788 24.2836 20.4788L21.0512 20.4347ZM56.3563 74.3334C56.3563 71.5944 56.3262 68.7867 56.3563 65.9742C56.3864 63.7595 57.8621 62.2258 60.1257 62.1572C62.9465 62.069 65.7774 62.2258 68.5931 62.0739C72.0313 61.8877 75.5397 61.8436 78.8674 61.0939C82.9782 60.1777 84.1175 55.2631 82.2604 51.6617C80.6643 48.5796 77.7833 47.8887 74.7316 47.8789C57.9424 47.8152 41.1481 47.8495 24.3589 47.8446C23.355 47.8446 22.3512 47.8447 21.3875 47.7663C19.6709 47.6046 17.9293 45.7426 17.8741 44.0913C17.7636 41.3082 19.9771 39.4463 23.4905 39.4414C35.627 39.4414 47.7634 39.4414 59.8948 39.4414C65.8476 39.4414 71.8004 39.407 77.7532 39.3286C79.535 39.3286 82.4863 37.0404 82.8728 35.4087C84.0774 30.2688 81.5477 25.8001 75.6351 25.8344C58.0026 25.9275 40.3752 25.8687 22.7427 25.8638C19.9771 25.8638 17.8891 24.0606 17.8741 21.7038C17.8741 19.1853 19.8817 17.3968 22.823 17.3919H55.1065C62.3576 17.3919 69.6087 17.3919 76.8598 17.3919C79.786 17.3919 81.7736 15.5887 82.667 13.276C83.4399 11.2866 83.6708 8.94939 82.1249 6.78365C80.4234 4.3337 78.1949 3.77512 75.3992 3.78492C58.379 3.84372 41.3589 3.80942 24.3388 3.81432C19.4551 3.81432 14.5714 3.81432 9.68773 3.90742C8.81858 3.96876 7.97466 4.21994 7.21829 4.6424C4.51796 6.01927 3.70485 8.38592 3.70485 11.2033C3.70485 25.5061 3.77512 39.8138 3.67474 54.1165C3.6396 59.428 7.05767 62.0347 12.1321 62.1229C17.3972 62.2111 22.6724 62.1229 27.9275 62.1817C30.6931 62.216 31.697 63.2009 31.7672 65.739C31.8275 67.8999 31.8275 70.0607 31.7672 72.2215C31.7271 74.1815 32.5753 74.9704 34.8992 74.3824C34.8992 71.6973 34.8992 68.9582 34.8992 66.2192C34.9048 65.2717 34.7159 64.3327 34.3436 63.4576C33.9714 62.5825 33.4234 61.789 32.7319 61.1241C32.0405 60.4591 31.2196 59.9361 30.3177 59.5858C29.4158 59.2356 28.4512 59.0653 27.4808 59.085C21.9095 59.085 16.3382 59.085 10.7669 59.085C8.81941 59.085 7.38894 58.3843 6.94725 56.3998C6.62259 55.2637 6.41908 54.0979 6.33993 52.9209C6.29978 39.5116 6.29978 26.1006 6.33993 12.688C6.33993 7.83711 7.94608 6.28385 12.895 6.28385H74.0289C74.6377 6.23785 75.2497 6.25099 75.8559 6.32306C78.6617 6.87184 81.2215 8.14092 79.8713 12.3058C79.0732 14.7264 77.0756 14.3785 75.2737 14.3834C58.7906 14.4128 42.3025 14.3834 25.8195 14.4471C23.7236 14.4904 21.6428 14.8034 19.6308 15.378C15.1135 16.5932 13.4622 22.4731 16.7648 26.0843C18.7273 28.2255 21.2821 28.8478 24.0627 28.8478H73.9737C75.0428 28.8478 76.1169 28.8478 77.176 28.9605C79.4246 29.1908 80.845 31.6751 80.2276 33.8065C79.5551 36.1388 77.186 37.0453 74.4656 37.0453C57.7516 37.0453 41.0377 37.0453 24.3237 37.0453C23.0284 37.012 21.7324 37.0825 20.4489 37.256C17.2969 37.7754 14.1448 41.906 14.8826 44.5617C16.022 48.6629 19.0787 50.9316 23.084 50.9316C40.335 50.8091 57.581 50.8777 74.832 50.8826C78.4207 50.8826 80.5489 52.4652 80.4836 55.0573C80.4083 57.7718 78.6014 59.0997 74.9625 59.1046C70.0788 59.1046 65.1901 59.1046 60.3064 59.1291C57.6814 59.1291 54.6598 61.089 54.1278 63.6321C53.5305 66.4691 53.5054 69.4188 53.2394 72.3245C53.0085 74.3334 54.0776 74.8822 56.3563 74.3089V74.3334ZM54.8857 81.2471C56.1003 81.2471 57.315 81.2863 58.5246 81.2471C59.6489 81.1982 60.5674 80.9776 60.5323 79.4783C60.4972 77.9789 59.9551 77.0283 58.4292 76.9352C56.0084 76.7668 53.5775 76.7947 51.1614 77.0185C50.4035 77.1068 49.3897 78.366 49.2692 79.1941C49.1839 79.787 50.273 80.9385 51.061 81.1541C52.2305 81.4676 53.5957 81.2226 54.8857 81.2226V81.2471ZM33.4988 81.2471C34.7135 81.2471 35.9231 81.2814 37.1378 81.2471C38.3524 81.2129 39.4566 80.8209 39.0551 79.4685C38.779 78.5228 37.9258 77.1214 37.1829 77.0185C34.7008 76.7245 32.1914 76.7245 29.7094 77.0185C28.9364 77.1068 27.802 78.4297 27.787 79.2088C27.787 79.8752 29.0117 80.8943 29.89 81.1687C30.9892 81.4921 32.2892 81.2324 33.4988 81.2324V81.2471Z" fill="black"/>
</svg>
