<svg width="63" height="63" viewBox="0 0 87 84" fill="none" xmlns="http://www.w3.org/2000/svg">
<path d="M80.524 29.5954V30.4676C80.524 43.5503 80.524 56.633 80.524 69.7157C80.5124 70.144 80.6604 70.5618 80.9406 70.8916C84.2934 73.9835 83.7262 77.3007 81.2066 80.172L80.6645 80.7747H83.2093V83.4108H3.43905V80.8041H5.94865C5.53708 80.3141 5.21081 79.9368 4.91468 79.5448C2.66608 76.6049 2.82669 73.7826 5.45174 71.1905C5.68425 70.9737 5.86606 70.7104 5.98474 70.4186C6.10341 70.1269 6.15615 69.8136 6.13937 69.5001C6.11929 56.5578 6.11929 43.6173 6.13937 30.6783V29.6248L5.51197 29.4044C4.07241 28.9807 2.8146 28.1085 1.93085 26.921C1.04711 25.7335 0.586065 24.2962 0.618242 22.8287C0.593949 22.6271 0.636397 22.4232 0.739357 22.2469C0.842316 22.0706 1.00039 21.931 1.19044 21.8487C14.1634 14.8746 27.1364 7.89714 40.1094 0.916443C42.3429 -0.284028 44.6266 -0.146837 46.8401 1.04873L69.9285 13.4895C75.0681 16.2563 80.2111 19.0215 85.3575 21.785C85.5759 21.8716 85.7599 22.0247 85.882 22.2216C86.0041 22.4185 86.0578 22.6486 86.0351 22.8777C86.015 26.1361 84.0776 28.5518 80.524 29.5954ZM53.0188 52.6249C52.6925 54.8592 53.5959 56.5742 55.187 58.049C56.6928 59.4259 58.1082 60.8616 59.5337 62.2433C61.0394 59.8473 62.9618 58.8673 65.4061 59.3965C64.8139 63.189 67.8505 64.8648 70.1744 67.0942C71.3941 64.4728 73.2913 63.0126 76.4032 63.3458C76.3179 64.953 76.4534 66.4768 77.7433 67.8047C77.7433 67.4862 77.7735 67.3147 77.7735 67.1138C77.7735 54.6779 77.7735 42.2404 77.7735 29.8012C77.7906 29.5843 77.738 29.3676 77.6228 29.1813C77.5076 28.9951 77.3356 28.8486 77.131 28.7625C73.5021 26.7339 69.7879 24.8426 66.2895 22.5984C63.4537 20.7904 60.5475 19.8545 57.1797 20.2465C56.2267 20.2981 55.2716 20.2981 54.3187 20.2465V25.5726H32.2693V20.2563C29.9103 20.2563 27.6416 20.2563 25.378 20.2563C24.9011 20.2651 24.4332 20.3843 24.0128 20.6042C19.2094 23.2795 14.4311 25.994 9.6227 28.6645C9.37177 28.7811 9.16438 28.9712 9.02942 29.2083C8.89446 29.4455 8.83866 29.7178 8.86982 29.9874C8.88989 42.2796 8.88989 54.5767 8.86982 66.8786C8.86982 67.1432 8.89492 67.4029 8.90998 67.7753C10.215 66.4523 10.2953 64.8991 10.2652 63.3311C11.6756 63.1547 12.9956 63.2576 14.0195 64.1053C15.0354 65.0549 15.9924 66.0628 16.8855 67.1236C17.8893 66.0506 18.9584 64.8893 20.0225 63.6937C21.1819 62.4197 21.3626 60.8518 21.2773 59.2544C24.2035 59.1123 25.9853 60.0384 27.1146 62.2678C27.3773 62.8257 27.6102 63.3965 27.8123 63.9779C28.388 65.568 29.361 66.9928 30.6431 68.1232C32.1138 66.8002 32.3948 65.0951 32.2894 63.042L36.2646 63.8799C37.1882 63.0224 38.197 62.0229 39.2762 61.1066C41.058 59.5876 42.1873 57.8041 41.9564 55.3982C41.9564 55.3541 42.0016 55.3051 42.0317 55.2463C43.7734 54.9376 45.2691 55.5256 46.6092 56.584C48.1501 53.4334 49.957 52.2868 53.0087 52.6396L53.0188 52.6249ZM79.5653 26.9593C80.2448 26.885 80.8951 26.6485 81.4588 26.2708C82.0225 25.8931 82.4823 25.3858 82.7977 24.7936C83.2996 23.8136 83.2996 23.7695 82.3409 23.2599C70.2045 16.7267 58.0697 10.1805 45.9366 3.62117C45.1625 3.14562 44.2664 2.89331 43.3518 2.89331C42.4371 2.89331 41.541 3.14562 40.7669 3.62117C28.7442 10.138 16.7098 16.6304 4.66372 23.0982C3.31355 23.8234 3.24831 24.1125 4.19694 25.3374C4.41014 25.6361 4.67312 25.8978 4.97492 26.1116C5.97876 26.7682 6.76175 27.2435 8.24241 26.4007C19.626 19.9231 31.0597 13.5238 42.4583 7.07069C42.7158 6.88786 43.0259 6.78938 43.3442 6.78938C43.6626 6.78938 43.9727 6.88786 44.2301 7.07069C55.7308 13.5777 67.2398 20.0668 78.7572 26.5379C79.0483 26.7241 79.3545 26.8662 79.5553 26.974L79.5653 26.9593ZM47.5478 71.3179C47.1814 66.0555 50.5593 62.601 54.3639 63.4242C54.2133 65.2078 54.5747 66.8541 56.0503 68.2212C56.4117 67.7704 57.004 67.3686 57.0542 66.9031C57.27 65.1245 57.1797 63.4193 55.5986 62.0718C53.5156 60.303 51.3072 58.6027 50.4088 55.702C48.4011 58.049 48.9883 60.7489 48.7926 63.2429H46.1324C45.9065 61.5574 45.9618 59.813 44.4861 58.4606C43.8687 60.3912 42.6742 61.7632 41.2989 63.0224C40.4005 63.8456 39.5321 64.6982 38.6538 65.5459C38.4487 65.7139 38.3117 65.9478 38.2676 66.2056C38.2234 66.4634 38.2749 66.7281 38.4129 66.9521C39.0238 68.3225 39.2822 69.8179 39.1657 71.3081H36.4905C36.2646 69.6226 36.3198 67.8782 34.8442 66.5307C34.2268 68.4613 33.0323 69.8333 31.657 71.0925C30.7134 71.95 29.7698 72.8173 28.8965 73.7385C28.5618 74.0717 28.3316 74.4912 28.2329 74.9478C28.1342 75.4044 28.1711 75.879 28.3393 76.3158C29.0872 78.4521 30.8489 79.6624 32.701 80.7502C32.7812 80.7791 32.8675 80.7875 32.952 80.7747H38.2573C38.1167 79.5791 37.7955 78.4228 37.8858 77.2958C38.0595 75.3014 38.8311 73.4012 40.1043 71.8324C42.0317 69.3825 44.7069 69.3482 46.544 71.8324C48.4914 74.493 49.6207 77.3938 48.1853 80.7551C49.5116 80.6961 50.8402 80.7059 52.1655 80.7845C52.8633 80.8542 53.5682 80.7668 54.2261 80.529C54.8839 80.2911 55.4771 79.9092 55.96 79.4125C56.369 79.0614 56.7577 78.6885 57.1245 78.2954C58.9966 76.2276 58.9414 74.6547 56.8986 72.7683C54.8558 70.8818 52.6774 69.309 51.7941 66.4866C50.3686 67.9027 50.3686 69.6128 50.1779 71.2934L47.5478 71.3179ZM28.6204 70.0293C26.7031 68.3339 25.6089 66.1388 24.7656 63.7917C24.5093 63.2989 24.2051 62.8313 23.8572 62.3952C23.039 65.0167 21.192 66.5748 19.4001 68.182C18.8488 68.6728 18.3291 69.1965 17.8442 69.75C17.0863 70.6172 16.8403 71.6658 17.4727 72.6311C18.1464 73.6557 18.9287 74.6083 19.8067 75.473C20.4568 76.0201 21.1537 76.5118 21.8896 76.943L20.6148 79.3929C19.5256 78.6089 18.4816 77.9622 17.5581 77.1782C15.5504 75.4779 14.2354 73.42 14.3659 70.6907C14.3753 70.1856 14.3162 69.6814 14.1902 69.1914C13.9593 68.2114 13.7334 67.2559 12.7848 66.5601C12.1651 68.3223 11.067 69.8871 9.60764 71.0876C8.82464 71.7883 8.01655 72.4645 7.28877 73.2142C5.84826 74.6841 5.68765 76.0267 6.99766 77.6241C7.90014 78.6305 8.90965 79.5405 10.0092 80.3386C10.4015 80.6067 10.8704 80.7473 11.3493 80.7404C16.6295 80.7649 21.8896 80.7404 27.1899 80.7404C27.4258 80.7404 27.6617 80.7061 27.9579 80.6865C24.3792 76.4922 24.4996 74.5959 28.6104 70.0439L28.6204 70.0293ZM64.8339 77.0949C66.0837 76.0218 67.3134 75.1643 68.2872 74.0913C70.0288 72.1656 69.9084 70.6613 68.0362 68.8876C66.0285 67.0011 63.7147 65.3744 62.7209 62.5667C61.1348 65.1098 60.4923 68.133 58.0129 70.0391C62.2139 74.3853 62.2892 75.571 58.7758 80.7257C58.8514 80.7555 58.9307 80.7753 59.0117 80.7845C64.5495 80.7845 70.0874 80.7845 75.6252 80.7845C75.8516 80.7995 76.077 80.7428 76.2677 80.6228C77.4271 79.6428 78.7221 78.7559 79.6757 77.6045C80.9807 76.0365 80.78 74.738 79.3846 73.2534C79.0333 72.881 78.6468 72.5478 78.2653 72.2048C76.4634 70.6074 74.6214 69.0444 73.8434 66.5307C73.0093 67.3184 72.5033 68.3796 72.423 69.5099C72.2875 70.4898 72.3477 71.5384 72.1269 72.5086C71.3639 75.8307 68.8292 77.6682 65.9934 79.339L64.8339 77.0949ZM29.5239 17.527H56.994C56.9407 17.4618 56.8801 17.4026 56.8133 17.3506C52.4767 14.9007 48.1401 12.4508 43.7884 10.0302C43.6285 9.96477 43.4559 9.93394 43.2826 9.93986C43.1093 9.94578 42.9394 9.98832 42.7846 10.0645C41.2537 10.8779 39.748 11.7501 38.2372 12.6027L29.5239 17.527ZM35.0952 22.9169H51.5381V20.3249H35.0952V22.9169ZM46.0772 77.874C45.8921 76.1897 45.2221 74.5911 44.1448 73.2632C43.5375 72.538 43.0857 72.5429 42.4734 73.2975C41.3689 74.6378 40.7104 76.2756 40.5862 77.9916C40.5728 78.3497 40.6328 78.7069 40.7628 79.042C40.8927 79.3772 41.0899 79.6837 41.3429 79.9434C41.5959 80.2031 41.8994 80.4109 42.2358 80.5545C42.5721 80.6981 42.9345 80.7746 43.3016 80.7796C43.6791 80.7688 44.0507 80.6853 44.3949 80.5336C44.7391 80.382 45.0492 80.1653 45.3073 79.8961C45.5653 79.6269 45.7662 79.3105 45.8983 78.9651C46.0305 78.6197 46.0913 78.2522 46.0772 77.8838V77.874Z" fill="black"/>
<path d="M26.2841 24.4947L27.7647 26.8025L22.1984 30.2031C20.8583 31.0213 19.5282 31.8445 18.1831 32.653C17.6209 32.9911 17.2495 33.4321 17.4302 34.123C17.5024 34.443 17.701 34.7224 17.9829 34.9004C18.2649 35.0783 18.6073 35.1406 18.9359 35.0735C19.4655 35.0221 19.9783 34.8635 20.4417 34.6081C23.4532 32.7951 26.4648 30.9184 29.4763 29.1104C32.3422 27.4052 35.7653 28.7674 36.5032 31.8886C36.5801 32.2726 36.6121 32.6638 36.5985 33.0548C36.5985 37.5104 36.5985 41.9644 36.5985 46.4168C36.5985 46.6128 36.5985 46.8088 36.5985 47.0047C36.6387 47.9112 37.2008 48.5286 37.9788 48.5286C38.1735 48.5221 38.3647 48.4768 38.5408 48.3955C38.7169 48.3143 38.8742 48.1988 39.003 48.0561C39.1317 47.9134 39.2293 47.7466 39.2897 47.5658C39.35 47.385 39.372 47.1941 39.3541 47.0047C39.3541 43.9521 39.3541 40.8995 39.3541 37.842C39.3215 36.7738 39.7249 35.7367 40.4755 34.9588C41.2262 34.1809 42.2627 33.7261 43.3569 33.6942C44.4511 33.6624 45.5135 34.0562 46.3103 34.789C47.1071 35.5218 47.573 36.5337 47.6056 37.6019C47.6358 39.3952 47.6056 41.1886 47.6056 42.9917C47.6056 43.9962 48.3886 44.6675 49.2419 44.4617C49.9747 44.2951 50.3562 43.7463 50.3562 42.7908C50.3562 39.4883 50.3562 36.1809 50.3562 32.8784C50.3372 31.8321 50.6974 30.8128 51.3733 30.0006C52.0492 29.1883 52.9973 28.6353 54.0503 28.4391C54.6726 28.3267 55.3116 28.3359 55.9302 28.4663C56.5488 28.5966 57.1347 28.8456 57.6541 29.1986C60.6104 31.0164 63.5768 32.8294 66.5531 34.6129C66.9951 34.8591 67.4833 35.0158 67.9886 35.0735C68.3152 35.1535 68.6609 35.1061 68.9523 34.9415C69.2437 34.7768 69.4579 34.5078 69.5496 34.1916C69.7955 33.4321 69.3488 32.9764 68.7465 32.6138L60.1687 27.3023C59.9077 27.1406 59.6668 26.9691 59.3606 26.778L60.8363 24.4898C64.2343 26.5772 67.5971 28.5959 70.9048 30.7077C71.5896 31.1845 72.0964 31.8665 72.3482 32.65C72.6001 33.4335 72.5832 34.2758 72.3001 35.049C72.0333 35.8221 71.5305 36.497 70.8594 36.9831C70.1884 37.4691 69.381 37.7432 68.5458 37.7685C67.2787 37.8298 66.0257 37.4857 64.9771 36.7885C62.1563 35.0196 59.2954 33.3145 56.4445 31.5701C55.7066 31.1144 54.9789 30.7861 54.1306 31.281C53.2824 31.7759 53.187 32.4766 53.187 33.3047C53.187 36.5239 53.187 39.748 53.187 42.9673C53.2118 43.5141 53.1215 44.0601 52.9219 44.5716C52.7222 45.083 52.4174 45.5492 52.0261 45.9412C51.6348 46.3333 51.1655 46.643 50.6469 46.8512C50.1284 47.0594 49.5716 47.1617 49.011 47.1518C46.6771 47.1518 44.9354 45.3535 44.9304 42.9623C44.9304 41.3356 44.9304 39.7137 44.9304 38.087C44.9304 37.0482 44.3783 36.3965 43.5451 36.4014C42.7119 36.4063 42.1749 37.0629 42.1749 38.1066C42.1749 41.0759 42.1749 44.0452 42.1749 47.0145C42.1979 47.5537 42.109 48.0918 41.9135 48.5966C41.7181 49.1013 41.4201 49.5623 41.0376 49.9518C40.655 50.3413 40.1957 50.6512 39.6873 50.8631C39.179 51.0749 38.6319 51.1842 38.0792 51.1843C35.685 51.1843 33.9233 49.4155 33.9183 46.9851C33.9183 42.394 33.9434 37.7979 33.8882 33.2067C33.859 32.5515 33.5983 31.9265 33.1503 31.4378C32.4978 30.7763 31.6446 30.9478 30.8716 31.4378C27.8601 33.29 24.8486 35.1029 21.837 36.9649C21.185 37.3772 20.4463 37.641 19.6756 37.7369C18.905 37.8327 18.1221 37.7581 17.385 37.5186C16.6719 37.323 16.0342 36.9253 15.5526 36.3758C15.071 35.8263 14.7672 35.1497 14.6797 34.4317C14.4287 32.9617 14.8604 31.5554 16.1603 30.7224C19.473 28.6155 22.866 26.5918 26.2841 24.4947Z" fill="black"/>
</svg>
