<svg width="63" height="84" viewBox="0 0 63 84" fill="none" xmlns="http://www.w3.org/2000/svg">
<path d="M57.4459 0.0812378C57.4459 0.105737 57.476 0.140039 57.4961 0.144939C60.7787 0.91912 62.6107 3.53076 62.5956 7.26446C62.5203 23.8359 62.5655 40.4024 62.5605 56.9689C62.613 57.1785 62.622 57.3962 62.5867 57.6092C62.5515 57.8223 62.4727 58.0262 62.3553 58.209C62.2378 58.3918 62.0839 58.5497 61.9027 58.6733C61.7216 58.797 61.5168 58.8838 61.3007 58.9288C61.1628 58.9578 61.0202 58.958 60.8822 58.9296C60.7442 58.9011 60.6139 58.8446 60.4997 58.7637C60.3856 58.6828 60.2902 58.5793 60.2198 58.46C60.1494 58.3407 60.1055 58.2083 60.091 58.0713C60.0139 57.7006 59.9819 57.3224 59.9957 56.9444C59.9957 40.1868 59.9957 23.4292 59.9957 6.67158C59.9957 5.60831 59.8451 4.61854 59.0922 3.79536C58.7039 3.36861 58.2233 3.03157 57.685 2.80868C57.1468 2.58579 56.5645 2.48263 55.9803 2.50668H6.65658C4.6489 2.50668 3.21341 3.45236 2.72152 5.13792C2.60065 5.61854 2.54995 6.11342 2.57095 6.60788C2.57095 11.0537 2.57095 15.4995 2.57095 19.9454C2.57095 20.161 2.57095 20.3815 2.57095 20.597C2.53079 21.5378 2.06903 22.067 1.25592 22.067C0.442805 22.067 0.0262114 21.5378 0.0111538 20.6313C-0.0139422 19.1614 0.0111538 17.6914 0.0111538 16.2214V6.94107C0.0111538 3.29556 1.4868 1.31601 5.03036 0.19394C5.07553 0.19394 5.11067 0.120437 5.1458 0.0812378H57.4459Z" fill="black"/>
<path d="M31.2958 24.4924H50.7753C52.1506 24.4924 52.5421 24.8697 52.5421 26.2368V62.1088C52.5421 63.4759 52.1506 63.8581 50.7753 63.8581H11.7158C10.3958 63.8581 9.99426 63.4661 9.99426 62.1529C9.99426 50.1678 9.99426 38.1827 9.99426 26.1976C9.99426 24.8795 10.3958 24.4924 11.7158 24.4924H31.2958ZM49.9522 36.7421H12.6293V44.0234H25.7596C27.1901 44.0234 27.5615 44.3908 27.5615 45.8216C27.5615 48.2715 27.5615 50.7558 27.5615 53.2204C27.5615 53.5046 27.5615 53.7888 27.5966 54.0632H34.9849V53.142C34.9849 50.7019 34.9849 48.2617 34.9849 45.8216C34.9849 44.3908 35.3513 44.0234 36.7818 44.0234H49.9421L49.9522 36.7421ZM12.6293 34.2089H49.9622V27.0061H12.6293V34.2089ZM12.6293 61.3787H24.9615V46.5076H12.6293V61.3787ZM37.63 61.3787H49.9572V46.5076H37.6049L37.63 61.3787ZM27.6317 61.3787H34.9598V56.5965H27.6317V61.3787Z" fill="black"/>
<path d="M2.59093 51.775C2.59093 60.1048 2.64615 68.4346 2.5558 76.7644C2.52568 79.5965 4.56348 80.993 6.88737 80.9881C23.1663 80.9456 39.4419 80.9456 55.7142 80.9881C58.013 80.9881 60.116 79.6112 60.0458 76.7644C59.9353 72.2908 60.0157 67.8172 60.0458 63.3436C60.0348 63.0153 60.06 62.6867 60.1211 62.3637C60.1886 62.1024 60.3435 61.8705 60.5612 61.7049C60.779 61.5393 61.0471 61.4494 61.3232 61.4494C61.5992 61.4494 61.8673 61.5393 62.0851 61.7049C62.3028 61.8705 62.4578 62.1024 62.5253 62.3637C62.5889 62.655 62.6175 62.9527 62.6106 63.2505C62.6106 67.778 62.6106 72.3055 62.6106 76.833C62.6106 80.8411 59.9805 83.4086 55.9099 83.4086C39.5222 83.4086 23.1345 83.3645 6.74683 83.4429C3.54458 83.4429 0.0261209 81.2429 0.0311401 76.9114C0.0579092 60.0199 0.0579092 43.1283 0.0311401 26.2368C0.0311401 25.9379 -0.0140338 25.5509 0.1516 25.3696C0.472829 25.0266 0.929578 24.5758 1.32108 24.5807C1.71257 24.5856 2.1894 25.0266 2.47047 25.394C2.65618 25.6292 2.59595 26.0702 2.59595 26.4181C2.59261 34.8655 2.59093 43.3178 2.59093 51.775Z" fill="black"/>
<path d="M31.2705 66.3031H43.6026C44.1107 66.2774 44.6187 66.3529 45.0959 66.525C45.5731 66.6971 46.0094 66.9622 46.3783 67.3042C46.7472 67.6461 47.0409 68.0578 47.2417 68.5141C47.4424 68.9704 47.5459 69.4618 47.5459 69.9584C47.5459 70.455 47.4424 70.9464 47.2417 71.4028C47.0409 71.8591 46.7472 72.2707 46.3783 72.6127C46.0094 72.9546 45.5731 73.2197 45.0959 73.3918C44.6187 73.5639 44.1107 73.6394 43.6026 73.6137H18.9433C18.4353 73.6394 17.9272 73.5639 17.45 73.3918C16.9728 73.2197 16.5365 72.9546 16.1676 72.6127C15.7987 72.2707 15.505 71.8591 15.3043 71.4028C15.1035 70.9464 15 70.455 15 69.9584C15 69.4618 15.1035 68.9704 15.3043 68.5141C15.505 68.0578 15.7987 67.6461 16.1676 67.3042C16.5365 66.9622 16.9728 66.6971 17.45 66.525C17.9272 66.3529 18.4353 66.2774 18.9433 66.3031H31.2705ZM31.2705 68.7531H22.6023C21.3525 68.7531 20.0927 68.7531 18.858 68.7531C18.6903 68.7421 18.5222 68.7654 18.3644 68.8214C18.2065 68.8774 18.0623 68.9648 17.9409 69.0782C17.8196 69.1916 17.7237 69.3285 17.6595 69.48C17.5953 69.6315 17.5642 69.7945 17.568 69.9584C17.566 70.1213 17.5975 70.2829 17.6607 70.4337C17.7239 70.5845 17.8175 70.7213 17.936 70.836C18.0545 70.9508 18.1954 71.0411 18.3503 71.1016C18.5052 71.1621 18.671 71.1916 18.8379 71.1883C18.9483 71.1883 19.0587 71.1883 19.1692 71.1883H43.3968C43.5635 71.2083 43.7321 71.2083 43.8988 71.1883C44.2072 71.1584 44.4918 71.0132 44.693 70.783C44.8942 70.5528 44.9963 70.2556 44.9779 69.9535C44.9831 69.6655 44.877 69.3861 44.6808 69.1709C44.4846 68.9557 44.2125 68.8205 43.9189 68.7923C43.6715 68.7554 43.4206 68.7455 43.171 68.7629L31.2705 68.7531Z" fill="black"/>
<path d="M31.7535 4.9566C33.4842 4.95758 35.1757 5.45966 36.6141 6.39934C38.0524 7.33902 39.173 8.67408 39.8339 10.2356C40.4948 11.7971 40.6665 13.5149 40.3271 15.1717C39.9878 16.8284 39.1527 18.3497 37.9275 19.5431C36.7023 20.7364 35.142 21.5481 33.4441 21.8756C31.7462 22.2031 29.987 22.0316 28.389 21.3828C26.791 20.734 25.426 19.637 24.4667 18.2307C23.5075 16.8244 22.997 15.172 23 13.4824C23.0145 11.2222 23.9421 9.05891 25.5811 7.46251C27.2201 5.86612 29.4382 4.9656 31.7535 4.9566ZM37.9823 13.4922C37.9734 12.2962 37.6022 11.1294 36.9155 10.1389C36.2287 9.14843 35.2572 8.37842 34.1231 7.92584C32.989 7.47327 31.7431 7.35837 30.5422 7.59561C29.3414 7.83286 28.2393 8.41163 27.3747 9.25907C26.5101 10.1065 25.9216 11.1847 25.6835 12.358C25.4453 13.5312 25.568 14.747 26.0361 15.8523C26.5043 16.9576 27.2969 17.903 28.3143 18.5694C29.3317 19.2359 30.5283 19.5936 31.7535 19.5974C32.5729 19.5981 33.3844 19.4408 34.1414 19.1345C34.8984 18.8282 35.586 18.379 36.1648 17.8127C36.7435 17.2464 37.202 16.574 37.5139 15.8343C37.8258 15.0945 37.985 14.3019 37.9823 13.502V13.4922Z" fill="black"/>
<path d="M31.6788 17.1622C30.9385 17.1486 30.2189 16.9214 29.6107 16.5091C29.0025 16.0967 28.533 15.5179 28.2614 14.8454C27.9898 14.173 27.9282 13.4371 28.0844 12.7305C28.2406 12.0239 28.6076 11.3783 29.1391 10.8751C29.6707 10.3719 30.343 10.0336 31.0712 9.90284C31.7994 9.7721 32.551 9.85477 33.2312 10.1405C33.9113 10.4261 34.4896 10.902 34.8931 11.5081C35.2966 12.1142 35.5072 12.8233 35.4984 13.5461C35.4799 14.5191 35.0679 15.4455 34.3523 16.1229C33.6367 16.8004 32.6756 17.1741 31.6788 17.1622ZM32.9236 13.5265C32.9206 13.2946 32.8474 13.0687 32.7133 12.8773C32.5791 12.6858 32.39 12.5374 32.1696 12.4506C31.9493 12.3639 31.7075 12.3427 31.4749 12.3897C31.2422 12.4367 31.029 12.5498 30.862 12.7149C30.695 12.8799 30.5818 13.0895 30.5365 13.3172C30.4912 13.5449 30.516 13.7806 30.6076 13.9946C30.6992 14.2086 30.8536 14.3914 31.0513 14.52C31.2491 14.6486 31.4814 14.7172 31.719 14.7172C32.0378 14.7072 32.3405 14.5781 32.5647 14.3565C32.7888 14.135 32.9173 13.8379 32.9236 13.5265Z" fill="black"/>
</svg>
