<svg width="97" height="85" viewBox="0 0 97 85" fill="none" xmlns="http://www.w3.org/2000/svg">
<path d="M45.3586 72.3559C45.0133 72.3191 44.6649 72.3191 44.3196 72.3559C43.7624 72.4245 43.657 72.1893 43.657 71.6846C43.657 62.9465 43.657 54.2083 43.657 45.4702C43.657 44.9802 43.7675 44.7989 44.3246 44.7989C60.3292 44.7989 76.3388 44.7989 92.3534 44.7989C93.4526 44.7989 93.9495 45.2889 93.9746 46.3816C93.9746 47.244 93.9746 48.1064 93.9746 48.9687C93.9746 50.0173 94.5367 50.6592 95.4201 50.6445C96.3035 50.6298 96.8054 50.0075 96.8154 49.0128C96.8255 48.0181 96.8154 47.0529 96.8154 46.0729C96.8154 44.5343 96.1479 43.1869 94.7275 42.643C93.4024 42.1187 93.2819 41.3151 93.3873 40.193C93.4099 39.8242 93.4099 39.4545 93.3873 39.0857C93.3873 37.9783 93.4526 36.866 93.3622 35.7636C93.2267 34.1368 91.9669 33.2646 89.909 33.2646C88.5488 33.2646 88.5488 33.2646 89.0005 32.0397C89.4523 30.8147 89.2515 29.9474 88.348 29.3251C87.9004 29.0429 87.4224 28.8096 86.9226 28.6293C73.9998 23.5335 61.072 18.4425 48.1392 13.3564C37.7093 9.24704 27.2794 5.13278 16.8495 1.01361C16.5033 0.837923 16.111 0.767812 15.7235 0.812369C15.3359 0.856927 14.9711 1.0141 14.6762 1.26351C11.4639 3.73795 8.22146 6.16338 5.01418 8.66232C3.43313 9.88239 3.72425 11.7786 5.58136 12.5234C6.88635 13.0477 8.20138 13.5475 9.50637 14.0669L69.3303 37.65C71.338 38.4438 73.3456 39.2523 75.5842 40.1342C75.2724 40.3324 74.983 40.5624 74.7209 40.8202C74.0232 41.7365 73.1449 41.9913 71.9654 41.9815C62.8254 41.9325 53.6854 41.9472 44.5454 41.9815C43.8829 41.9815 43.6319 41.8982 43.642 41.1534C43.6721 38.3213 41.9154 36.621 39.0243 36.6161H16.9047C14.1692 36.6161 12.3121 37.9881 11.5241 40.536C10.7361 43.084 9.89285 45.7446 9.12993 48.3758C9.06623 48.6242 8.94607 48.8553 8.77837 49.0521C8.61067 49.2489 8.39974 49.4063 8.16123 49.5126C6.77091 50.228 5.4358 51.0414 4.01536 51.698C2.12814 52.5701 0.657516 53.7755 0 55.7698V72.0178C0.150576 72.057 0.150576 72.1844 0.195749 72.2971C0.470643 73.1546 1.02706 73.8999 1.77909 74.418C2.53112 74.9361 3.43693 75.198 4.35667 75.1635C5.68174 75.1635 7.00179 75.188 8.32686 75.1635C8.82878 75.1635 9.03959 75.2419 9.13495 75.825C9.49794 78.1487 10.7007 80.2689 12.5258 81.8022C14.3508 83.3355 16.6777 84.1807 19.0855 84.1848C21.4934 84.189 23.8232 83.3519 25.6538 81.8248C27.4844 80.2978 28.6948 78.1818 29.0662 75.8593C29.1716 75.2272 29.4025 75.1635 29.9396 75.1635C34.1005 75.1635 38.2614 75.1635 42.4173 75.1635C43.396 75.1635 44.3748 75.1635 45.3485 75.1635C45.5298 75.1616 45.7089 75.1248 45.8756 75.0553C46.0423 74.9858 46.1934 74.8849 46.3201 74.7585C46.4469 74.632 46.5469 74.4823 46.6145 74.3181C46.682 74.1539 46.7157 73.9783 46.7137 73.8013C46.7253 73.6188 46.699 73.4359 46.6366 73.2635C46.5742 73.0911 46.4768 72.9327 46.3503 72.7978C46.2239 72.6629 46.0709 72.5543 45.9005 72.4784C45.7301 72.4024 45.5458 72.3608 45.3586 72.3559ZM7.56896 10.2842L14.7816 4.77671C15.2232 7.80974 15.6348 10.6566 16.0665 13.6259L7.56896 10.2842ZM17.6375 4.36511L26.1701 7.71664L18.9224 13.2339C18.4907 10.245 18.0742 7.39324 17.6375 4.36511ZM20.6942 15.4486L27.8917 9.94608C28.3234 12.9693 28.7299 15.7916 29.1616 18.7659L20.6942 15.4486ZM30.7627 9.53938L39.2954 12.8909L32.0376 18.4082L30.7627 9.53938ZM33.8244 20.618L41.0069 15.1351C41.1876 16.3306 41.3984 17.3939 41.5088 18.4621C41.6945 20.2407 42.2015 21.9802 42.1463 23.7833C41.2027 23.6853 40.3996 23.1905 39.5413 22.8671C37.6491 22.137 35.7769 21.3922 33.8244 20.618ZM43.8729 14.7039L52.4055 18.0603L45.1779 23.5776C44.7312 20.5739 44.3146 17.7271 43.8729 14.7039ZM47.1353 25.8707L50.1067 23.4992L53.6202 20.7111C53.9163 20.471 54.1773 20.2211 54.2676 20.8875C54.629 23.5825 55.0205 26.2774 55.4221 29.1291L47.1353 25.8707ZM57.0031 19.8732L65.5358 23.2346L58.3081 28.7469L57.0031 19.8732ZM60.0648 30.9617L67.2774 25.4591C67.7091 28.4578 68.1156 31.2998 68.5473 34.3034L60.0648 30.9617ZM84.0717 30.5501C84.3277 30.6579 84.6037 30.7314 84.8547 30.8441C86.4056 31.5203 86.235 31.0156 85.6276 32.7403C85.3215 33.6076 84.5937 33.2303 84.0466 33.2303C83.4995 33.2303 83.635 32.7403 83.5748 32.4169C83.4895 31.971 83.4342 31.5154 83.3389 30.898C83.0628 30.2169 83.4995 30.31 84.0667 30.5501H84.0717ZM84.2574 36.1164C86.1095 36.1164 87.9666 36.1164 89.8237 36.1164C90.3658 36.1164 90.5213 36.2731 90.5113 36.7974C90.4762 38.3017 90.5113 39.806 90.5113 41.3102C90.5113 41.663 90.5364 41.9717 90.0094 41.9717C85.9572 41.9717 81.905 41.9717 77.8529 41.9717L77.622 41.6238C79.4138 39.9579 81.2157 38.2919 83.0026 36.621C83.1654 36.4591 83.36 36.331 83.5748 36.2443C83.7895 36.1575 84.02 36.114 84.2524 36.1164H84.2574ZM71.3229 33.4312C70.9163 30.6726 70.5399 27.909 70.1384 25.0524L78.6359 28.3941L75.7599 30.604C74.495 31.584 73.2503 32.5639 71.9603 33.4998C71.7545 33.6517 71.4132 34.0731 71.3179 33.4312H71.3229ZM73.1951 36.1261L80.3876 30.6383C80.5833 31.9857 80.759 33.1862 80.9397 34.3818C80.9748 34.6366 80.7891 34.764 80.6335 34.9159L77.9984 37.5471C77.8228 37.7235 77.6621 37.9146 77.356 37.7921L73.1951 36.1261ZM29.6384 39.4287C30.9936 39.4678 32.3438 39.4678 33.6989 39.4287C34.2661 39.4287 34.3715 39.6344 34.3665 40.1293C34.3665 42.3098 34.3364 44.4902 34.3665 46.6707C34.3665 47.3861 34.1206 47.6507 33.3627 47.6262C32.2032 47.5772 31.0337 47.5821 29.8492 47.6262C29.1867 47.6262 28.9357 47.4106 28.9508 46.7785C28.9508 45.6417 28.9508 44.5049 28.9508 43.3486C28.9508 42.1922 28.9508 41.1975 28.9508 40.1245C28.9658 39.6541 29.0512 39.414 29.6334 39.4287H29.6384ZM12.533 46.9941C13.1604 45.0341 13.7325 43.0742 14.3599 41.1142C14.4803 40.614 14.7794 40.172 15.2034 39.8676C15.6275 39.5632 16.1488 39.4163 16.6738 39.4532C17.8031 39.4287 18.9375 39.4532 20.0718 39.4532C20.5235 39.4532 20.6691 39.5806 20.659 40.0265C20.6289 41.1926 20.659 42.3588 20.659 43.5299C20.659 44.6029 20.659 45.6809 20.659 46.7589C20.659 47.3567 20.5185 47.6556 19.8158 47.6409C17.5522 47.6115 15.2985 47.6409 13.0148 47.6409C12.4777 47.6164 12.3723 47.4988 12.533 46.9941ZM19.1232 81.2932C17.6905 81.3059 16.2864 80.9026 15.089 80.1345C13.8917 79.3665 12.9551 78.2684 12.3984 76.9797C11.8416 75.691 11.6897 74.2699 11.962 72.8967C12.2343 71.5236 12.9185 70.2604 13.9276 69.2677C14.9368 68.2749 16.2254 67.5973 17.6299 67.321C19.0343 67.0446 20.4912 67.182 21.8155 67.7156C23.1398 68.2492 24.2718 69.155 25.0677 70.318C25.8636 71.4809 26.2875 72.8486 26.2856 74.2472C26.2909 75.1701 26.1097 76.085 25.7525 76.9395C25.3953 77.794 24.869 78.5714 24.2038 79.2271C23.5386 79.8829 22.7475 80.4042 21.8757 80.7613C21.0039 81.1183 20.0686 81.3041 19.1232 81.3079V81.2932ZM40.8463 65.9321C40.776 67.8088 40.8061 69.6854 40.8463 71.5621C40.8463 72.1158 40.771 72.3559 40.1034 72.3509C36.6352 72.3117 33.1669 72.3215 29.7037 72.3509C29.2017 72.3509 28.9859 72.2236 28.8353 71.6993C28.259 69.6084 26.9927 67.7614 25.2324 66.4442C23.4721 65.127 21.316 64.4131 19.0981 64.4131C16.8801 64.4131 14.7241 65.127 12.9638 66.4442C11.2034 67.7614 9.9371 69.6084 9.36082 71.6993C9.22028 72.1893 9.07974 72.4 8.51257 72.3755C7.19252 72.3265 5.86745 72.3755 4.5474 72.3755C3.38796 72.3755 2.84589 71.861 2.83585 70.7585C2.83585 69.0974 2.83585 67.4364 2.83585 65.7753C2.83585 65.2853 2.95129 65.1432 3.45823 65.1579C5.06438 65.1873 6.67052 65.1579 8.27667 65.1579C8.99755 65.1754 9.7039 64.9582 10.2843 64.5405C11.9105 63.3484 13.7736 62.5008 15.7545 62.0519C17.7355 61.6031 19.7906 61.5628 21.7884 61.9338C21.9814 61.9728 22.1804 61.9737 22.3738 61.9364C22.5672 61.899 22.7509 61.8243 22.9142 61.7165C23.0775 61.6087 23.217 61.4701 23.3245 61.3088C23.432 61.1475 23.5053 60.9668 23.5401 60.7774C23.6957 59.969 23.0934 59.2634 22.0594 59.1066C18.5322 58.5198 14.9056 58.9985 11.6646 60.4785C11.0759 60.6911 10.5189 60.9795 10.0083 61.336C8.88901 62.2621 7.62417 62.4434 6.23385 62.3454C5.28923 62.2964 4.34262 62.2964 3.398 62.3454C2.94627 62.3454 2.80574 62.2131 2.81075 61.7721C2.81075 60.1405 2.81075 58.5088 2.81075 56.8722C2.81466 56.4236 2.94939 55.9853 3.19916 55.6087C3.44894 55.2321 3.80343 54.9328 4.22115 54.7457C5.99293 53.8245 7.73459 52.8739 9.51139 51.9282C10.1639 51.5755 10.8816 51.2913 11.3032 50.6298C11.5191 50.2868 11.8604 50.3946 12.1565 50.3946C14.7113 50.3946 17.261 50.3946 19.8158 50.3946C22.2301 50.3946 23.5501 49.0961 23.5601 46.7491C23.5601 44.5343 23.5601 42.3392 23.5601 40.1048C23.5601 39.6148 23.6756 39.4287 24.2277 39.4238C26.0898 39.4238 26.0898 39.3845 26.0898 41.2318C26.0898 43.0791 26.0898 45.0488 26.0898 46.9549C26.0898 49.0128 27.455 50.3554 29.5631 50.3848C30.9785 50.4093 32.399 50.4093 33.8144 50.3848C34.2723 50.3992 34.7283 50.3202 35.1533 50.153C35.5782 49.9858 35.9628 49.7339 36.2825 49.4135C36.6022 49.0931 36.8501 48.7112 37.0101 48.2921C37.1702 47.873 37.2391 47.4259 37.2124 46.9794C37.2124 44.7009 37.2124 42.4274 37.2124 40.1489C37.2124 39.6051 37.3178 39.4238 37.9251 39.4238C40.6606 39.4238 40.8212 39.5414 40.8212 42.1922V51.3256C40.8212 54.7555 40.8212 58.156 40.8212 61.5712C40.8212 62.1641 40.6807 62.3503 40.0482 62.3454C36.8008 62.3111 33.5584 62.3209 30.311 62.3454C29.9055 62.3299 29.5111 62.2117 29.1666 62.0024C29.0191 61.9112 28.8546 61.8494 28.6825 61.8205C28.5105 61.7916 28.3342 61.7962 28.164 61.834C27.9938 61.8718 27.8328 61.942 27.6905 62.0407C27.5482 62.1394 27.4272 62.2646 27.3346 62.4091C27.2214 62.5395 27.1362 62.6908 27.0841 62.8539C27.0321 63.0171 27.0142 63.1889 27.0315 63.3589C27.0488 63.529 27.101 63.6939 27.185 63.8439C27.269 63.9939 27.383 64.1258 27.5203 64.2318C27.819 64.5271 28.1756 64.7605 28.5689 64.918C28.9622 65.0754 29.384 65.1537 29.8091 65.1481C33.182 65.1481 36.5549 65.1481 39.9278 65.1481C40.5903 65.1188 40.8764 65.1971 40.8463 65.9468V65.9321Z" fill="black"/>
<path d="M96.8155 56.103C96.8637 55.7351 96.7785 55.3624 96.5746 55.0495C96.4121 54.7996 96.1688 54.61 95.8833 54.5105C95.5977 54.4111 95.2864 54.4076 94.9986 54.5007C94.6671 54.605 94.3828 54.8183 94.1943 55.1042C94.0058 55.39 93.9246 55.7309 93.9646 56.0687C93.9646 60.8999 93.9646 65.7263 93.9646 70.5576C93.9646 71.8463 93.4627 72.3412 92.1427 72.3461C90.2203 72.3461 88.2979 72.3461 86.3806 72.3461C85.7783 72.3461 85.5575 72.204 85.3768 71.5915C84.7868 69.5228 83.5191 67.6997 81.7675 66.4008C80.0159 65.1018 77.8768 64.3986 75.6772 64.3986C73.4775 64.3986 71.3384 65.1018 69.5868 66.4008C67.8352 67.6997 66.5675 69.5228 65.9775 71.5915C65.7868 72.2481 65.4756 72.3461 64.8783 72.3412C60.6572 72.3412 56.436 72.3412 52.2149 72.3412C51.9218 72.3082 51.6252 72.3564 51.3589 72.4803C51.0926 72.6042 50.8674 72.7988 50.7091 73.0419C50.1018 74.0218 50.8396 75.1194 52.1547 75.1243C56.2503 75.1243 60.346 75.1635 64.4366 75.1243C65.3752 75.1243 65.6714 75.3742 65.832 76.266C66.6752 80.8522 71.0971 84.2675 75.9206 84.1548C80.744 84.0421 85.0003 80.426 85.6378 75.825C85.7181 75.2468 85.9188 75.1243 86.4559 75.1341C88.5037 75.157 90.5516 75.157 92.5994 75.1341C93.1585 75.1388 93.7128 75.0341 94.2297 74.8262C94.7467 74.6183 95.2157 74.3114 95.6092 73.9236C96.0026 73.5359 96.3125 73.0751 96.5206 72.5685C96.7286 72.0619 96.8306 71.5198 96.8206 70.9741C96.8206 68.5242 96.8206 66.0742 96.8206 63.5949L96.8155 56.103ZM75.6345 81.308C74.2038 81.306 72.8058 80.8899 71.6174 80.1122C70.429 79.3345 69.5036 78.2303 68.9581 76.9391C68.4127 75.6479 68.2718 74.2277 68.5532 72.8583C68.8346 71.4889 69.5257 70.2318 70.5392 69.2459C71.5526 68.26 72.8427 67.5897 74.2465 67.3197C75.6502 67.0497 77.1044 67.1922 78.4251 67.7291C79.7459 68.2661 80.8738 69.1734 81.6663 70.3362C82.4588 71.4991 82.8802 72.8652 82.8772 74.2619C82.8819 75.1906 82.6976 76.1109 82.3349 76.9694C81.9723 77.8279 81.4386 78.6076 80.7648 79.2631C80.091 79.9186 79.2905 80.4369 78.4098 80.788C77.5291 81.139 76.5857 81.3158 75.6345 81.308Z" fill="black"/>
<path d="M53.6754 63.8399C56.2285 63.8399 58.7799 63.8399 61.3297 63.8399C61.7972 63.8624 62.2643 63.789 62.701 63.6246C63.1376 63.4602 63.5342 63.2083 63.8652 62.8852C64.1961 62.5621 64.4541 62.175 64.6226 61.7487C64.791 61.3224 64.8661 60.8664 64.8431 60.41C64.8431 58.9057 64.8431 57.3966 64.8431 55.8923C64.8431 54.3881 64.8431 52.8152 64.8431 51.2766C64.8684 50.8143 64.7938 50.352 64.6242 49.9197C64.4547 49.4874 64.1939 49.0947 63.8588 48.7671C63.5237 48.4395 63.1218 48.1844 62.6792 48.0182C62.2366 47.8521 61.7631 47.7786 61.2895 47.8026C58.7799 47.8026 56.2703 47.7732 53.7306 47.8026C51.6627 47.8026 50.2674 49.1354 50.2423 51.1345C50.2021 54.2705 50.2021 57.4064 50.2423 60.5423C50.2271 60.9839 50.306 61.4238 50.4739 61.8342C50.6418 62.2446 50.8951 62.6165 51.2178 62.9264C51.5404 63.2363 51.9254 63.4775 52.3485 63.6348C52.7715 63.792 53.2233 63.8619 53.6754 63.8399ZM53.1082 55.8237C53.1082 54.4077 53.1384 52.9965 53.1082 51.5853C53.1082 50.914 53.2889 50.6495 54.0067 50.6593C56.3657 50.6936 58.7247 50.6887 61.0838 50.6593C61.8015 50.6593 62.0073 50.9336 62.0023 51.5902C61.9755 54.4158 61.9755 57.243 62.0023 60.0719C62.0023 60.7726 61.7764 61.0519 61.0235 61.0519C58.6946 61.0176 56.3657 61.0225 54.0368 61.0519C53.3592 61.0519 53.0831 60.8559 53.1082 60.1503C53.1434 58.7098 53.1082 57.2643 53.1082 55.8237Z" fill="black"/>
<path d="M19.0529 69.7786C18.1426 69.7767 17.2522 70.0383 16.4942 70.5304C15.7362 71.0225 15.1447 71.723 14.7945 72.5433C14.4443 73.3635 14.3512 74.2668 14.5268 75.1387C14.7024 76.0107 15.139 76.8123 15.7813 77.442C16.4236 78.0718 17.2427 78.5014 18.1351 78.6767C19.0276 78.852 19.9532 78.765 20.795 78.4267C21.6368 78.0884 22.3569 77.514 22.8643 76.7762C23.3717 76.0384 23.6435 75.1702 23.6455 74.2816C23.6502 73.6906 23.5347 73.1047 23.3058 72.5576C23.0769 72.0105 22.7391 71.5131 22.312 71.0943C21.8849 70.6755 21.3769 70.3436 20.8175 70.1178C20.2581 69.8919 19.6583 69.7766 19.0529 69.7786ZM19.0529 75.8985C18.8335 75.8985 18.6162 75.8561 18.4137 75.7737C18.2111 75.6913 18.0273 75.5705 17.8728 75.4183C17.7184 75.2662 17.5963 75.0856 17.5137 74.8872C17.4311 74.6887 17.3896 74.4762 17.3916 74.262C17.3916 73.8202 17.5714 73.3964 17.8914 73.084C18.2115 72.7715 18.6455 72.596 19.0981 72.596C19.5507 72.596 19.9848 72.7715 20.3048 73.084C20.6249 73.3964 20.8047 73.8202 20.8047 74.262C20.8064 74.4849 20.7613 74.7059 20.6719 74.9111C20.5826 75.1163 20.451 75.3013 20.2853 75.4548C20.1196 75.6083 19.9234 75.7269 19.7088 75.8032C19.4942 75.8795 19.2659 75.912 19.0379 75.8985H19.0529Z" fill="black"/>
<path d="M75.7198 69.7785C74.4991 69.7675 73.3239 70.2303 72.4528 71.0651C71.5816 71.8999 71.0859 73.0384 71.0745 74.2301C71.0632 75.4217 71.5373 76.569 72.3924 77.4194C73.2476 78.2699 74.4138 78.7539 75.6345 78.7649C76.8552 78.776 78.0304 78.3132 78.9015 77.4783C79.7727 76.6435 80.2684 75.505 80.2798 74.3134C80.2911 73.1217 79.817 71.9745 78.9618 71.124C78.1067 70.2736 76.9405 69.7896 75.7198 69.7785ZM75.6847 75.8985C75.458 75.9011 75.2331 75.8596 75.0231 75.7764C74.8131 75.6932 74.6221 75.5701 74.4614 75.4141C74.3007 75.2581 74.1734 75.0724 74.0869 74.8678C74.0005 74.6633 73.9567 74.444 73.9581 74.2227C73.984 73.7915 74.1739 73.3853 74.4904 73.0836C74.807 72.7818 75.2274 72.6062 75.6696 72.591C75.8969 72.5909 76.1219 72.6355 76.3311 72.7221C76.5404 72.8088 76.7296 72.9357 76.8875 73.0953C77.0454 73.2549 77.1687 73.444 77.25 73.6511C77.3314 73.8583 77.3692 74.0794 77.3611 74.3011C77.364 74.515 77.3223 74.7272 77.2385 74.9249C77.1548 75.1225 77.0307 75.3015 76.8739 75.4509C76.7171 75.6003 76.5308 75.717 76.3264 75.794C76.122 75.8709 75.9036 75.9064 75.6847 75.8985Z" fill="black"/>
</svg>
