<svg width="63" height="63" viewBox="0 0 112 85" fill="none" xmlns="http://www.w3.org/2000/svg">
<path d="M79.8274 0.659546C79.8274 2.3304 79.7572 4.01106 79.8877 5.67212C79.966 5.94349 80.1035 6.19516 80.2906 6.40994C80.4777 6.62473 80.7101 6.79758 80.9718 6.91669C81.5492 7.10058 82.1615 7.15583 82.7637 7.07839C84.9521 7.02939 86.4879 8.25926 88.2396 9.32253C89.6902 10.2045 89.3539 11.1943 89.384 12.2625C89.4443 14.5164 89.384 16.7753 89.384 19.2644C86.9096 19.2644 84.6961 19.3771 82.5027 19.2301C81.027 19.1272 80.4097 20.117 79.9078 20.9842C79.2201 22.1651 80.0684 23.2235 81.6645 23.2725C84.1741 23.3411 86.6536 23.297 89.1481 23.297H100.336V30.1568C102.213 30.1568 103.849 30.1568 105.506 30.1568C106.75 30.1568 107.413 30.7987 107.423 31.9012C107.458 39.741 107.423 47.5808 107.423 55.6509H100.517V62.7116H92.5913C89.2234 62.7116 88.9775 63.0203 89.6651 66.6315H111.303V84.0114H0.790039V66.6609H26.7694V57.165C25.0529 57.165 23.3313 56.9788 21.6699 57.2091C19.6622 57.4933 18.6283 56.2634 17.4187 55.2099C16.992 54.8375 16.6407 54.372 15.9631 53.6321C15.9129 52.4709 15.8376 50.8588 15.7573 49.0214H7.72658V55.6852C6.98374 55.7195 6.34126 55.9008 5.82429 55.7244C5.30731 55.548 4.66488 55.0335 4.65986 54.6562C4.58457 49.5162 4.62472 44.3665 4.5946 39.2363C4.5946 38.1485 5.19189 38.0113 6.10037 38.0211C8.60997 38.0211 11.0894 37.9819 13.584 38.0211C15.2403 38.0603 15.9832 37.2665 15.8426 35.7672C15.6419 33.6455 16.2291 32.0629 18.2719 30.9898C18.9997 30.6125 19.3762 29.6276 20.0236 29.0299C20.4056 28.7611 20.868 28.6232 21.3387 28.6379C23.1506 28.5938 24.9625 28.6379 26.9049 28.6379C26.9049 25.8155 26.9702 23.248 26.8447 20.656C26.8447 20.166 26.1119 19.5241 25.5849 19.3624C24.7718 19.1125 23.8483 19.2154 22.8846 19.1664V16.5842H40.8132V19.1566L38.2183 19.3477C38.0824 20.0785 37.9902 20.8163 37.9422 21.5575C37.9422 25.7273 37.9422 29.8873 37.9071 34.0571C37.9071 35.1743 38.2183 35.6153 39.4128 35.5614C41.1796 35.483 42.9263 35.5614 44.7934 35.5614C44.8687 35.1792 45.0544 34.8411 44.9741 34.5814C44.3417 32.4255 45.8575 30.8428 46.6806 29.1915C47.3331 27.8882 48.859 27.0209 49.8477 25.84C50.3497 25.2275 50.5605 24.3701 51.0222 23.3166C54.6913 23.3166 58.551 23.3166 62.4309 23.3166C63.1016 23.3382 63.773 23.3071 64.4386 23.2235C65.5779 23.052 66.3057 21.484 65.5478 20.6658C64.8652 19.9259 64.1926 19.1321 62.8374 19.2448C60.7093 19.4212 58.5561 19.2889 56.197 19.2889C56.197 16.1677 56.1017 13.311 56.2673 10.4691C56.3074 9.80272 57.1908 8.68555 57.7731 8.63655C59.6603 8.46995 60.9402 6.4414 63.0382 7.10779C63.4207 7.16652 63.8102 7.16652 64.1926 7.10779C65.337 7.10779 65.849 6.6178 65.7988 5.40263C65.7285 3.84447 65.864 2.27161 65.9142 0.703645L79.8274 0.659546ZM107.503 81.3802V72.8348C107.503 70.5122 107.503 70.5073 105.21 70.5073H6.98874C6.4868 70.454 5.97958 70.4721 5.48298 70.5612C5.1467 70.6592 4.65483 71.0512 4.64981 71.3158C4.5946 74.6428 4.61467 77.9748 4.61467 81.3802H107.503ZM96.1349 27.3639C95.9709 27.3157 95.8029 27.2813 95.6329 27.261H53.9284C52.7288 27.261 51.9207 27.6236 51.8303 28.9613C51.8303 29.2797 51.3886 29.559 51.1828 29.8775C50.5203 30.9261 49.135 31.5239 49.0898 32.9645C49.0447 34.5814 48.9895 36.2033 48.9995 37.8251C49.033 42.9569 49.0848 48.0904 49.1551 53.2255C49.1357 53.6486 49.2401 54.0684 49.4563 54.4357C50.2393 55.5186 51.1126 56.5378 51.9659 57.5815C52.8191 58.6251 53.567 59.7129 55.2685 59.708C68.2281 59.659 81.1877 59.6786 94.1472 59.6786H96.1549L96.1349 27.3639ZM33.8014 32.6607C29.7207 32.6607 25.7405 32.5823 21.7553 32.6999C20.0688 32.7538 18.6835 34.5128 18.6735 36.2033C18.6735 39.8782 18.6735 43.5531 18.6735 47.2329C18.6735 49.1145 18.2117 51.1234 20.0638 52.5542C20.8016 53.1226 21.5093 54.1613 22.2672 54.1956C26.0617 54.3671 29.8663 54.274 33.8114 54.274L33.8014 32.6607ZM50.8667 62.5009C49.9331 61.031 49.1551 59.8452 48.3571 58.6447C48.0308 58.1547 47.7899 57.508 47.3532 57.1748C45.8475 56.1654 44.8436 54.9355 44.9641 53.0589C45.0143 52.1671 44.9641 51.2753 44.9641 50.408H38.0677V66.4453H56.1769C56.0615 65.1371 55.9611 63.9513 55.8607 62.7949L50.8667 62.5009ZM60.2576 16.3441H85.0474V11.1551H60.2726L60.2576 16.3441ZM104.401 51.5938C104.401 46.6645 104.447 41.9802 104.401 37.3008C104.356 34.1306 105.134 34.062 101.084 34.1453C100.912 34.17 100.744 34.2127 100.582 34.2727V51.7751L104.401 51.5938ZM44.8436 46.4146V39.5107C42.7908 39.5107 40.8583 39.4519 38.936 39.5597C38.697 39.6399 38.4826 39.7776 38.3124 39.96C38.1422 40.1423 38.0218 40.3636 37.9623 40.6034C37.8468 42.1644 37.8468 43.7315 37.9623 45.2925C38.023 45.5391 38.147 45.7665 38.3226 45.9534C38.4982 46.1403 38.7197 46.2805 38.9661 46.3607C40.8634 46.4734 42.7857 46.4146 44.8436 46.4146ZM67.2594 66.4355H78.1109C78.1504 65.5308 78.1387 64.6245 78.0757 63.721C78.0406 63.3878 77.6441 62.8292 77.4032 62.8243C74.0554 62.7655 70.7025 62.7851 67.2594 62.7851V66.4355ZM33.8415 57.2189C32.8545 57.1741 31.8656 57.1872 30.8802 57.2581C30.5389 57.3022 29.9817 57.7775 29.9767 58.0665C29.9064 60.8399 29.9315 63.6132 29.9315 66.4404H33.8415V57.2189ZM33.7813 19.4898C31.096 18.9361 29.9868 19.2203 29.9065 20.656C29.7609 23.2235 29.8663 25.8008 29.8663 28.4615H33.7813V19.4898ZM76.5499 6.91669C76.841 4.84404 76.1082 3.09969 74.9438 2.99679C73.2431 2.89473 71.5372 2.91274 69.8392 3.05069C68.5493 3.14869 68.5744 4.23646 68.6246 5.14784C68.6547 5.80442 68.203 6.84319 69.4628 6.87749C71.8419 6.98039 74.221 6.93629 76.5499 6.93629V6.91669ZM76.6152 23.0177C76.8812 20.2444 75.9777 19.2399 73.6036 19.235H71.7817C68.7701 19.235 68.2682 19.8671 68.8454 23.0177H76.6152ZM7.81693 44.7193H15.677C16.1438 41.3383 15.8075 40.9513 12.5852 40.9513H11.0794C8.34896 40.9513 7.6011 41.7499 7.81693 44.7193ZM62.8224 66.509C63.6104 64.26 63.1737 61.8296 60.3128 62.9566V66.509H62.8224ZM85.2281 66.509C85.1679 65.191 85.1127 63.9954 85.0625 62.7998H82.5529V66.509H85.2281Z" fill="black"/>
<path d="M18.5781 73.5256V77.2593H11.8222V73.5256H18.5781Z" fill="black"/>
<path d="M100.346 73.6237V77.2153H96.712C95.924 74.1823 97.0583 73.0798 100.346 73.6237Z" fill="black"/>
<path d="M28.215 73.6874V77.5191C26.982 77.3777 25.762 77.1434 24.566 76.8184C24.3301 76.7351 24.1695 75.3779 24.4756 75.0447C25.3691 74.0696 26.2625 72.7172 28.215 73.6874Z" fill="black"/>
<path d="M56.2874 55.7833V51.8634C56.9148 51.8193 57.4016 51.7556 57.8835 51.7556H87.1203C87.5466 51.7431 87.9686 51.8416 88.3431 52.041C88.7175 52.2403 89.0309 52.5333 89.2511 52.8899C89.4713 53.2465 89.5903 53.6538 89.596 54.0701C89.6017 54.4865 89.4939 54.8968 89.2836 55.259C89.0828 55.602 88.2496 55.749 87.7076 55.749C79.6768 55.7784 71.6461 55.7784 63.6154 55.749L56.2874 55.7833Z" fill="black"/>
<path d="M89.2485 30.3038V34.0032H56.2823V30.3038H89.2485Z" fill="black"/>
<path d="M89.2485 45.0034C89.3037 45.5865 89.384 46.0618 89.389 46.5371C89.389 48.4284 89.133 48.7616 87.2458 48.7665C77.4433 48.7665 67.6408 48.7665 57.8383 48.8008C56.5985 48.8008 56.1217 48.3647 56.1418 47.228C56.1418 46.5322 56.1418 45.8315 56.1418 45.0034H89.2485Z" fill="black"/>
<path d="M56.2422 40.7944V38.1436C56.6443 38.078 57.0498 38.0338 57.4568 38.0113C67.5253 38.0113 77.5939 38.0113 87.6624 38.0113C89.0226 38.0113 89.5295 38.418 89.4292 39.7752C89.3639 40.7209 88.9825 40.9512 88.1041 40.9512C77.6508 40.9284 67.1958 40.9186 56.7391 40.9218C56.5696 40.8952 56.4032 40.8525 56.2422 40.7944Z" fill="black"/>
<path d="M29.5551 35.6643L29.786 39.3882H27.0505V35.6643H29.5551Z" fill="black"/>
</svg>
