<svg width="86" height="85" viewBox="0 0 86 85" fill="none" xmlns="http://www.w3.org/2000/svg">
<path d="M24.4229 10.1023C25.0202 6.42741 24.7491 7.084 28.0367 7.0154C29.9541 6.9713 31.8664 6.986 33.7787 6.9713C33.9196 6.93797 34.0561 6.88863 34.1852 6.82431C33.9544 5.03095 35.1489 4.95255 36.6396 4.70756C38.8431 4.34987 40.9662 3.52179 43.1345 2.9338C43.6113 2.8015 44.1383 2.8848 44.6402 2.7721C45.7294 2.51731 46.8035 2.20372 47.8826 1.90973C48.0232 1.87053 48.1487 1.73333 48.2842 1.71863C51.5216 1.36584 54.7539 1.00815 57.9913 0.674956C59.2261 0.552459 59.743 1.16495 59.6376 2.34582C59.5874 2.9289 59.6376 3.52179 59.6376 4.11467C59.6376 6.73121 58.6589 7.63768 55.9836 7.88268C54.5983 8.01498 53.2532 8.55397 51.8679 8.80386C50.9845 8.96556 50.0409 8.83816 49.1676 9.01945C48.1487 9.26842 47.1518 9.59611 46.1862 9.99943C46.0977 10.0759 46.0309 10.1733 45.9922 10.2823C45.9535 10.3913 45.9443 10.5082 45.9653 10.6217C46.0201 10.7398 46.1005 10.8448 46.2011 10.9294C46.3016 11.014 46.4198 11.0762 46.5475 11.1117C46.9469 11.1633 47.3507 11.1731 47.7521 11.1411H62.0217V15.7666C62.0217 16.5016 62.0217 17.2365 62.0217 17.9764C61.9848 18.4241 62.0463 18.8742 62.2021 19.2968C62.3579 19.7193 62.6045 20.1045 62.9252 20.4264C63.8789 21.4063 64.431 22.8224 64.973 24.1111C65.1537 24.5178 64.8978 25.1303 64.7572 25.63C64.6167 26.1298 64.2151 26.5806 64.2151 27.051C64.2151 28.3103 63.141 28.8297 62.5789 29.7018C61.7658 30.966 60.5712 30.7749 59.3917 30.9121C59.105 30.9677 58.8383 31.0962 58.6187 31.2845L54.6636 30.7945L54.4929 31.2306C54.9949 31.7696 55.4315 32.6271 56.0539 32.7888C59.2612 33.6315 59.2963 36.4049 59.5071 38.6686C59.8635 42.4709 59.6226 46.332 59.6025 50.1686C59.6025 51.227 59.9739 51.5504 61.1082 52.011C63.402 52.9469 65.8012 52.256 67.9595 52.9077C70.1177 53.5594 72.3563 53.6476 74.5848 53.8877C75.3647 53.9811 76.1562 53.8971 76.8972 53.642C77.6383 53.387 78.3087 52.968 78.8562 52.4177C79.86 51.5161 82.2642 51.7219 83.4086 52.452C85.1502 53.5692 86.1189 55.1077 85.3109 56.9109C84.5479 58.616 84.6082 60.3408 84.2769 62.0313C83.9105 63.9128 83.0522 65.7013 82.4098 67.5289C82.3901 67.5748 82.375 67.6224 82.3646 67.671C81.958 69.9152 81.692 72.1936 81.1048 74.3887C80.6028 76.1772 80.3669 78.1225 78.8562 79.4993C78.7609 79.6051 78.6511 79.6974 78.5299 79.7737C75.95 81.0379 72.1806 79.1808 71.6687 76.5006C71.4629 75.4422 70.5142 74.9669 69.4803 74.6435C67.9143 74.1536 66.3935 73.5362 64.8476 72.9874C64.431 72.8355 63.9843 72.7669 63.5677 72.6052C62.9275 72.3924 62.3078 72.1252 61.7156 71.8065C60.6615 71.1793 59.7581 71.5958 59.6226 72.7865C59.3616 75.0992 59.0956 77.412 58.7542 79.71C58.5183 81.278 57.128 82.0571 56.0389 82.9586C54.3624 84.3453 52.2544 84.0562 50.2467 84.0562C42.5874 84.0562 34.9331 84.0562 27.2738 84.0562C24.7642 84.0562 22.1994 81.523 21.3009 79.4062C19.9156 76.1429 20.5983 72.8502 20.4577 69.5771C20.3172 66.4362 20.4176 63.2807 20.4276 60.135C20.4775 59.6804 20.3805 59.2219 20.1501 58.8238C19.9196 58.4258 19.5674 58.1081 19.1427 57.9154C17.9682 57.2833 17.0748 56.1661 16.0057 55.3282C14.9366 54.4903 13.6065 53.7211 12.5424 52.7656C10.4595 50.8987 7.86955 49.5905 6.23831 47.2042C5.54064 46.185 4.50166 45.3913 3.72871 44.426C3.20153 43.7822 2.76593 43.0718 2.43375 42.3141C1.93608 41.1743 1.52015 40.002 1.18899 38.8058C0.451165 36.1305 -0.276619 33.4405 0.10484 30.6132C0.345868 28.3432 0.989556 26.1314 2.00712 24.0768C2.83529 22.5088 3.54802 20.8723 4.48159 19.368C5.16967 18.2856 6.00175 17.297 6.95606 16.4281C8.1277 15.3244 9.40129 14.3287 10.7606 13.4538C11.7645 12.812 13.0142 12.4739 14.1636 12.0182C15.6041 11.4498 17.0497 10.8814 18.5153 10.362C18.9465 10.2064 19.4009 10.1203 19.8604 10.1072C21.3662 10.0925 22.9272 10.1023 24.4229 10.1023ZM23.665 38.0904C23.6299 38.8205 23.5897 39.2566 23.5897 39.6927C23.5897 52.1319 23.5897 64.571 23.5897 77.0102C23.5897 79.6512 24.8144 81.0085 27.5147 81.0281C35.7696 81.0967 44.0279 81.0967 52.2895 81.0281C55.03 81.0281 56.5709 79.2984 56.5709 76.6182C56.5709 64.4273 56.5709 52.2348 56.5709 40.0406V38.2423C55.7176 38.2031 55.0651 38.1541 54.4277 38.1443C53.2683 38.1443 52.1038 38.1835 50.9494 38.1443C50.2417 38.1002 49.2178 38.1149 49.4436 37.0517C49.534 36.6009 50.2718 36.1403 50.8139 35.9443C51.3559 35.7483 52.0084 35.9002 52.6107 35.8757C53.3887 35.8512 54.1667 35.8071 54.9447 35.7679L55.1404 35.2485C54.3022 34.7242 53.2783 34.3518 52.6609 33.6413C51.1552 31.9313 49.007 31.0836 47.4058 29.5891C46.5777 28.8101 45.8248 28.8101 44.8962 28.8052C41.4731 28.8052 38.0484 28.8052 34.6219 28.8052C34.1819 28.7491 33.7345 28.81 33.327 28.9816C31.9366 29.9174 30.6015 30.9415 29.2714 31.9215C28.9502 32.1714 28.7695 32.6026 28.4332 32.8329C27.2387 33.6707 26.0039 34.4596 24.7893 35.2828L24.98 35.7728C25.6074 35.812 26.2348 35.8855 26.8622 35.8855C32.9606 35.8855 39.0539 35.8855 45.1472 35.8855C47.1047 35.8855 47.195 36.0276 46.7885 38.1149L23.665 38.0904ZM24.6688 18.4909C22.4052 18.4909 20.282 18.2949 18.2242 18.5644C17.0647 18.7163 15.9103 19.515 14.9316 20.2451C13.6918 21.1712 12.698 22.4108 11.4733 23.3614C9.59616 24.8314 8.81316 26.8893 8.64251 28.9718C8.43672 31.4609 7.83944 34.1215 9.64635 36.4539C10.2386 37.2232 10.2888 38.4383 10.9513 39.1096C13.0343 41.2117 15.2478 43.1912 17.4763 45.1365C18.2192 45.7833 19.1929 46.1752 20.4226 46.8955C20.4226 44.7641 20.4226 43.152 20.4226 41.5449C20.4527 39.286 20.0311 36.9635 21.4616 34.9006C22.0488 34.0529 22.36 32.9799 23.66 32.8329C23.936 32.7986 24.192 32.5046 24.4379 32.3037C25.4418 31.4854 26.4456 30.6328 27.5248 29.8537C28.6641 29.0012 29.9039 28.2809 30.998 27.4038C31.3965 27.0961 31.7007 26.6877 31.8777 26.2228C32.0547 25.758 32.0977 25.2547 32.0019 24.7677C31.9541 24.179 31.9541 23.5875 32.0019 22.9988C32.0019 21.1614 31.3895 20.5489 29.5575 20.5489C28.7043 20.5489 27.846 20.5195 26.9927 20.5489C25.5321 20.593 24.1167 20.642 24.6688 18.4909ZM75.93 56.955C73.5308 56.563 71.4127 56.1906 69.2946 55.8917C68.0046 55.7104 66.529 55.9799 65.4348 55.4605C63.5677 54.5736 61.7457 54.9313 59.7882 54.7794C59.723 55.5242 59.6326 56.1024 59.6276 56.6806C59.6276 59.9308 59.6276 63.1778 59.6276 66.4215C59.6276 68.2688 60.4909 69.0773 62.353 69.435C63.816 69.7792 65.2573 70.2062 66.6695 70.7138C67.5981 71.0127 68.7927 71.1107 69.3648 71.733C70.3687 72.8306 71.3725 72.3896 72.3764 72.4337C72.6223 71.4537 72.813 70.5374 73.074 69.6653C73.2397 69.092 73.6111 68.5726 73.7265 67.9944C74.1431 65.8826 74.4894 63.7609 74.8659 61.6246C74.8659 61.5266 74.8659 61.3992 74.9462 61.3453C76.4971 60.1399 75.684 58.5033 75.93 56.9599V56.955ZM24.5885 13.199C21.244 12.8081 17.8521 13.196 14.6906 14.3309C13.7822 14.6543 12.7332 14.8944 12.0656 15.502C10.4143 17.0014 9.10427 18.878 7.36763 20.2598C4.99857 22.1511 3.95959 24.8902 3.543 27.3891C2.73992 32.2057 2.46889 37.2281 5.4252 41.7066C5.92712 42.5003 6.17808 43.5146 6.79544 44.2153C7.61357 45.1414 8.89347 45.7098 9.59616 46.6946C11.1872 48.9241 13.8575 49.8012 15.6995 51.6974C16.8091 52.7287 17.9952 53.6786 19.2481 54.5393C19.75 54.9264 20.3874 55.0636 20.3874 54.1767C20.3874 52.7068 20.9345 51.1192 19.3836 49.9873C18.9681 49.6364 18.5727 49.2635 18.1991 48.8702C17.4082 48.0702 16.5703 47.316 15.6895 46.6113C14.5049 45.7588 12.8888 45.2933 12.0355 44.2202C10.7807 42.6522 9.19964 41.4077 8.07032 39.6535C6.56456 37.3506 6.0275 34.8516 5.61593 32.3723C5.32481 30.6328 5.99237 28.6974 6.43406 26.8942C6.77034 25.5173 7.12671 23.9837 7.99001 22.9155C9.89229 20.5685 11.8699 18.3243 14.9366 17.0749C17.5114 16.0214 19.9558 15.0365 22.8017 15.2178C23.3789 15.257 23.9661 15.2178 24.5785 15.2178L24.5885 13.199ZM34.2856 14.3505C34.2856 15.9479 34.376 17.4178 34.2856 18.8731C34.1852 20.1373 34.7574 20.5293 35.9169 20.5244C38.4265 20.5244 40.9361 20.5244 43.4457 20.5244C45.7645 20.5244 45.8348 20.4411 45.9151 18.1381C45.9151 17.8588 45.9904 17.5844 46.0506 17.1582H47.7471C50.9644 17.1582 54.1817 17.1582 57.3991 17.1582C58.4029 17.1582 59.6677 16.0998 59.6176 15.2668C59.5423 13.9438 58.4531 14.1839 57.6099 14.1006C57.5597 14.1006 57.5095 14.1006 57.4593 14.1006C50.5228 14.1006 43.5829 14.1006 36.6396 14.1006C35.8717 14.1153 35.1389 14.2574 34.2856 14.3505ZM82.3746 54.8872C79.3631 54.456 79.2276 54.603 78.9967 57.2098C78.9264 57.9987 78.3442 58.7336 78.1635 59.5274C77.7118 61.4874 77.3303 63.4865 76.9589 65.471C76.5574 67.6318 76.196 69.8025 75.8045 71.9633C75.7552 72.1433 75.6661 72.3106 75.5435 72.4533C74.0779 74.3692 74.4091 76.3487 76.4068 77.5933C77.6465 76.7505 78.304 75.6333 78.0681 74.1291C78.0631 73.9336 78.1026 73.7395 78.1836 73.5607C78.8311 71.4145 79.589 69.288 80.1059 67.1075C80.6229 64.9271 80.9191 62.6339 81.3156 60.3898C81.3156 60.3457 81.3156 60.282 81.3457 60.2526C82.9117 58.6993 82.0986 56.7492 82.3746 54.8872ZM57.8157 28.9179C59.989 28.8101 61.9766 26.9971 61.9916 24.998C61.9916 22.8224 60.0191 20.6469 57.9462 20.5881C56.3099 20.5293 53.2883 23.4741 53.7501 25.0274C54.1115 26.2474 54.6034 27.6733 55.8381 28.4573C56.3802 28.7807 57.1481 28.7513 57.8157 28.8983V28.9179ZM42.6476 11.0872C42.6928 10.7001 42.7329 10.4649 42.743 10.2248C42.8534 7.182 43.0592 6.986 46.1611 6.888C47.0154 6.90859 47.8697 6.84457 48.7108 6.69691C50.9644 6.15302 53.193 5.51604 55.4165 4.87905C55.8186 4.71238 56.1993 4.50024 56.5508 4.24697C56.1292 4.03627 55.6925 3.62958 55.286 3.65408C53.5895 3.76188 51.9432 3.65408 50.2668 4.54096C48.6757 5.39354 46.5777 4.92805 44.7005 5.62383C42.487 6.44701 40.0075 6.60381 37.5933 7.0154V11.0872H42.6476ZM32.0119 11.1901C32.5475 11.199 33.0829 11.1662 33.6131 11.0921C33.8439 11.0382 34.0246 10.7834 34.2254 10.6021C34.0096 10.3914 33.7988 10.0141 33.5779 10.0092C31.6907 9.96023 29.8085 9.97983 27.8861 9.97983V18.3096C28.6089 18.3096 29.2514 18.3096 29.8938 18.3096C31.8664 18.2851 32.0119 18.143 32.0169 16.2027C32.0169 14.571 32.0119 12.9296 32.0119 11.1901ZM40.0778 23.5133C38.572 23.5133 37.0663 23.5133 35.5605 23.5133C34.898 23.5133 34.3107 23.626 34.2655 24.5619C34.2316 24.7212 34.2371 24.886 34.2814 25.0429C34.3258 25.1997 34.4078 25.344 34.5206 25.4637C34.6334 25.5834 34.7739 25.6752 34.9303 25.7314C35.0867 25.7876 35.2545 25.8066 35.42 25.7868C38.4315 25.8603 41.443 25.8995 44.4545 25.7868C44.7605 25.72 45.0448 25.5803 45.2821 25.3802C45.5194 25.1802 45.7024 24.926 45.8147 24.6403C46.0155 23.6162 45.0167 23.5427 44.309 23.5084C42.8885 23.4692 41.4832 23.5133 40.0778 23.5133ZM50.8189 23.4153C51.7023 22.254 52.43 21.3132 53.1327 20.3627C53.2683 20.1814 53.4289 19.9217 53.3837 19.7453C53.3313 19.6467 53.2549 19.5621 53.1613 19.4989C53.0677 19.4357 52.9597 19.3958 52.8466 19.3827C51.3409 19.3533 49.7799 19.3827 48.1286 19.3827V23.43L50.8189 23.4153ZM52.1389 29.6822C52.4451 28.2123 51.2355 26.1984 49.9857 25.9975C49.7297 25.9583 49.2328 26.169 49.1776 26.3601C49.0722 26.7276 49.032 27.3401 49.2579 27.5312C50.1112 28.2907 51.0799 28.913 52.1389 29.6822Z" fill="black"/>
<path d="M53.5995 42.5444V75.1188C53.5995 77.6227 53.5594 77.6521 50.9896 77.6521H28.4885C26.7568 77.6521 25.8584 76.7946 25.8584 75.1188C25.8584 64.7017 25.8584 54.2845 25.8584 43.8674C25.8584 42.7992 26.2047 42.3239 27.2939 42.3239C35.9002 42.3435 44.5081 42.3566 53.1177 42.3631C53.284 42.408 53.4454 42.4687 53.5995 42.5444ZM29.1058 74.5602H48.9367C51.1853 74.5602 51.1953 74.5602 51.2004 72.3602C51.2004 63.952 51.1602 55.5438 51.2355 47.1356C51.2355 45.5725 50.5981 45.2099 49.2278 45.2148C43.0843 45.241 36.9391 45.241 30.7923 45.2148C29.5023 45.2148 28.9452 45.5186 28.9553 46.9543C29.0305 55.5095 28.9904 64.0647 29.0004 72.6199C28.9854 73.1883 29.0506 73.7664 29.1058 74.5602Z" fill="black"/>
<path d="M36.2933 51.7709C36.2933 49.2573 37.7138 47.6648 39.9975 47.6354C41.0519 47.6649 42.0514 48.1013 42.7768 48.849C43.5021 49.5966 43.8943 50.5945 43.8673 51.6239C43.8673 53.9318 42.1658 55.8231 40.0577 55.8329C37.8041 55.8476 36.2984 54.2258 36.2933 51.7709ZM38.6524 50.4578V52.8685C39.5481 52.7212 40.4333 52.5183 41.3025 52.2609C41.428 52.2119 41.423 51.1536 41.2623 51.0899C40.4087 50.8195 39.5365 50.6083 38.6524 50.4578Z" fill="black"/>
<path d="M48.0734 58.8953V60.8896H32.1023V58.8953H48.0734Z" fill="black"/>
<path d="M32.0721 66.1765V64.2656H48.0131V66.1765H32.0721Z" fill="black"/>
<path d="M32.1023 71.5028V69.4497H48.0332V71.4832L32.1023 71.5028Z" fill="black"/>
</svg>
