<svg width="87" height="84" viewBox="0 0 87 84" fill="none" xmlns="http://www.w3.org/2000/svg">
<path d="M40.4284 29.8176H42.5365C42.9531 28.2791 43.2291 26.7454 43.7762 25.3097C44.614 22.999 45.9684 20.8995 47.7413 19.1637C49.5142 17.4279 51.6609 16.0994 54.0254 15.2748C54.1446 15.2502 54.2575 15.2022 54.3571 15.1337C54.4566 15.0652 54.5409 14.9776 54.6048 14.8764C54.6686 14.7751 54.7107 14.6622 54.7284 14.5445C54.7462 14.4268 54.7393 14.3069 54.708 14.1919C54.6177 13.3835 54.5525 12.5652 54.5324 11.742C54.5114 11.5417 54.5355 11.3393 54.603 11.1491C54.6706 10.9588 54.7799 10.7853 54.9233 10.6406C55.0668 10.4959 55.2408 10.3836 55.4334 10.3114C55.626 10.2393 55.8324 10.2091 56.0381 10.223C58.8288 10.2002 61.6212 10.2002 64.4152 10.223C64.625 10.2123 64.8347 10.2464 65.0296 10.3232C65.2245 10.3999 65.3998 10.5173 65.5433 10.6672C65.6867 10.817 65.7949 10.9957 65.8601 11.1907C65.9254 11.3857 65.9461 11.5922 65.921 11.7959C65.921 12.6142 65.8406 13.4324 65.7453 14.2458C65.7156 14.3544 65.7093 14.4678 65.7265 14.5789C65.7437 14.69 65.7842 14.7964 65.8454 14.8916C65.9066 14.9867 65.9873 15.0686 66.0823 15.132C66.1773 15.1954 66.2847 15.239 66.3978 15.2601C72.0143 17.3867 75.603 21.3163 77.1841 26.9904C77.43 27.8773 77.5605 28.7985 77.7763 29.847H80.9936C81.4152 29.847 81.8318 29.847 82.2534 29.847C82.4639 29.8358 82.6744 29.8679 82.8714 29.9411C83.0683 30.0143 83.2473 30.1271 83.3969 30.2721C83.5463 30.4171 83.663 30.5912 83.7393 30.783C83.8155 30.9748 83.8497 31.1801 83.8395 31.3856C83.8696 32.9389 83.8747 34.4921 83.8395 36.0454C83.8144 37.29 83.4581 37.6379 82.2083 37.7555C81.6311 37.8094 81.0488 37.8093 80.3913 37.8387C80.8932 40.2201 81.3952 42.528 81.8971 44.8358C82.3655 46.9329 82.834 49.0317 83.3025 51.1321C83.4237 51.5114 83.4086 51.9196 83.2598 52.2894C83.1111 52.6591 82.8375 52.9683 82.4843 53.1656C81.2948 53.9251 80.1504 54.7433 78.9157 55.5812L79.4878 55.8654C83.8746 57.9185 86.0982 61.3484 86.1283 66.067C86.1634 71.3294 86.0881 76.5919 86.058 81.8544C86.058 83.3243 85.5962 83.7751 84.0503 83.7751H3.0052C1.20833 83.7751 0.771682 83.3488 0.771682 81.6045C0.771682 80.0218 0.726503 78.4392 0.796772 76.8614C0.891492 76.3506 1.06051 75.8556 1.29869 75.3914C1.39871 75.1817 1.48423 74.9656 1.55468 74.7447C1.57488 74.5279 1.57488 74.3097 1.55468 74.093V2.50572C1.55468 0.844657 1.96123 0.447761 3.68784 0.447761C5.27893 0.447761 6.86999 0.447761 8.46108 0.447761C9.8514 0.447761 10.3734 0.967156 10.3784 2.33912C10.3784 4.49507 10.3784 6.64612 10.3784 8.86086H31.5896C31.5896 8.59137 31.6348 8.30718 31.6348 8.01808C31.6348 6.14143 31.6348 4.25987 31.6348 2.37831C31.6348 0.908351 32.1367 0.447771 33.5772 0.442871H38.4659C39.9365 0.442871 40.4334 0.932856 40.4334 2.35382V29.7932L40.4284 29.8176ZM48.4591 37.8486C48.4591 39.1078 48.4591 40.3279 48.4591 41.548C48.4892 45.757 51.5811 49.4515 55.8575 49.9415C58.5504 50.1955 61.2608 50.2217 63.9584 50.0198C65.2344 49.9157 66.4673 49.5195 67.5572 48.8635C71.9591 46.2567 72.2201 42.4544 71.7934 37.8486H48.4591ZM83.1368 77.9737H3.7882V80.8352H83.1368V77.9737ZM4.5662 3.3632V74.975H7.34683V3.3632H4.5662ZM37.3968 74.9847V3.39259H34.6362V74.9847H37.3968ZM48.7703 57.9577C48.9259 58.1782 48.9962 58.2859 49.0765 58.3888C52.7257 63.0685 55.002 68.6292 55.6617 74.4752C55.737 75.0534 56.0532 75.0239 56.4547 75.0239C58.9392 75.0239 61.4237 75.0239 63.9032 75.0239C64.4654 75.0239 64.6712 74.8574 64.7464 74.3037C65.4164 68.5718 67.6585 63.1226 71.2363 58.531C71.3618 58.3693 71.4621 58.1831 71.6177 57.943C70.112 57.8646 68.7819 57.7862 67.4869 58.6877C65.4793 60.0695 63.3411 61.2455 61.2732 62.5293C60.9569 62.7546 60.5755 62.8761 60.184 62.8761C59.7925 62.8761 59.411 62.7546 59.0948 62.5293C57.0871 61.27 54.9741 60.1283 53.0216 58.776C51.7116 57.8646 50.3614 57.8303 48.7703 57.9577ZM74.6343 29.8127C74.3984 24.5503 69.8158 19.1653 65.4441 18.1265C65.2584 20.5422 65.0627 22.9578 64.892 25.3735C64.8117 26.4514 64.3349 27.0443 63.3863 27.0541C61.2682 27.0541 59.145 27.0541 57.0269 27.0541C56.8377 27.062 56.6488 27.0327 56.4714 26.9681C56.294 26.9034 56.1317 26.8046 55.9941 26.6776C55.8565 26.5506 55.7464 26.3979 55.6703 26.2286C55.5943 26.0593 55.5538 25.8768 55.5513 25.692C55.476 24.8492 55.4358 24.0064 55.3706 23.1636C55.2451 21.4682 55.1146 19.7778 54.9841 18.0628C50.1907 19.5328 46.075 24.5895 45.7387 29.8226L74.6343 29.8127ZM83.1669 74.9847C83.1669 71.6528 83.2774 68.4091 83.1669 65.185C83.0552 63.4427 82.3473 61.7876 81.1569 60.485C79.9664 59.1825 78.3623 58.308 76.6018 58.0018C76.3503 57.9211 76.0792 57.9198 75.8269 57.9981C75.5747 58.0764 75.3541 58.2303 75.1964 58.4379C74.0521 59.9764 72.7621 61.4268 71.7533 63.0437C69.5212 66.6802 68.1302 70.7489 67.6777 74.9652H74.3432C74.3432 73.0787 74.3432 71.2559 74.3432 69.4381C74.32 69.238 74.3427 69.0354 74.4097 68.845C74.4767 68.6546 74.5862 68.4811 74.7303 68.3371C74.8745 68.1931 75.0496 68.0822 75.2431 68.0124C75.4366 67.9427 75.6435 67.9158 75.8489 67.9338C76.7574 67.9338 77.2944 68.4728 77.3195 69.4528C77.3195 70.1339 77.3195 70.8149 77.3195 71.496V74.9896L83.1669 74.9847ZM43.1337 74.9847C43.1337 73.0248 43.1337 71.1824 43.1337 69.3303C43.1192 69.1528 43.1424 68.9743 43.2019 68.8059C43.2613 68.6376 43.3557 68.483 43.4791 68.3519C43.6026 68.2208 43.7524 68.116 43.9193 68.0441C44.0861 67.9722 44.2664 67.9346 44.4488 67.9338C44.636 67.9026 44.8279 67.9099 45.012 67.9555C45.1961 68.001 45.3684 68.0836 45.5178 68.1981C45.6672 68.3126 45.7904 68.4563 45.8795 68.6201C45.9685 68.7839 46.0215 68.964 46.0349 69.149C46.0735 69.5004 46.0869 69.8541 46.075 70.2074C46.075 71.7802 46.075 73.3531 46.075 74.9701H52.7305C52.4695 70.2074 49.8394 63.9257 46.3461 59.6775C44.6696 57.6343 44.1476 57.5216 41.7234 58.6975C41.5276 58.7906 41.3419 58.918 41.1361 59.0062C40.8932 59.1013 40.6899 59.2732 40.5589 59.4944C40.4278 59.7156 40.3766 59.9733 40.4133 60.2263C40.4133 64.8861 40.4133 69.5361 40.4133 74.2008V74.9995L43.1337 74.9847ZM40.4736 37.8486V56.0418C42.0729 55.3421 43.8108 54.9958 45.5631 55.0275C47.2897 55.0667 49.0163 55.0275 50.788 55.0275C51.0641 53.9986 51.3602 53.0088 51.571 52.0043C51.5714 51.8725 51.5398 51.7425 51.4787 51.6249C51.4176 51.5074 51.3289 51.4057 51.2197 51.3281C47.3298 48.8782 45.4828 45.3748 45.5028 40.8914C45.5028 39.8869 45.5028 38.8873 45.5028 37.8387L40.4736 37.8486ZM10.4487 69.4479V74.9652H31.5946V69.4479H10.4487ZM69.585 54.9834C74.0169 55.3754 74.2729 55.3019 77.962 52.7491C78.1534 52.5895 78.3602 52.4484 78.5794 52.3277C80.04 51.6907 80.2658 50.7254 79.8743 49.2114C78.9458 45.659 78.2531 42.0478 77.445 38.4659C77.3898 38.2259 77.1589 37.8583 76.9732 37.8387C76.2684 37.7891 75.5612 37.7793 74.8551 37.8093C74.8551 38.6423 74.8551 39.3479 74.8551 40.0486C74.8764 41.1385 74.8244 42.2287 74.6995 43.3119C74.4457 44.9619 73.8231 46.537 72.8758 47.9258C71.9286 49.3145 70.68 50.4828 69.2186 51.3477C69.0329 51.4653 68.797 51.7691 68.8321 51.9357C69.0379 52.9647 69.324 53.9838 69.585 54.9834ZM22.5299 26.3779H31.5645V16.9604H22.5299V26.3779ZM31.6197 34.4578H22.545V43.8705H31.6147L31.6197 34.4578ZM22.54 61.4072H31.6047V51.9602H22.5349L22.54 61.4072ZM40.4736 34.8645H80.7979V32.8017H40.4736V34.8645ZM10.4487 16.9604V26.3926H19.4481V16.9604H10.4487ZM10.4487 34.4676V43.8999H19.4833V34.448L10.4487 34.4676ZM19.4431 61.417V51.9651H10.4487V61.3974L19.4431 61.417ZM53.644 55.787C55.7269 57.061 57.7296 58.3007 59.7574 59.4913C59.9027 59.5578 60.0612 59.5923 60.2216 59.5923C60.3821 59.5923 60.5406 59.5578 60.6859 59.4913C62.011 58.7367 63.3059 57.9332 64.6009 57.1296C65.3237 56.6788 66.3827 56.3211 66.6086 55.6841C66.8344 55.0471 66.2572 54.0966 66.0816 53.2734C65.9862 52.8177 65.7654 52.754 65.3287 52.7834C62.1264 52.8569 58.9242 52.901 55.7219 52.9353C55.2818 52.9096 54.8441 52.8539 54.4119 52.7687C54.161 53.7781 53.91 54.7434 53.649 55.7674L53.644 55.787ZM62.006 24.1779C62.2921 20.4638 62.5681 16.8575 62.8442 13.212H57.574C57.84 16.9065 58.106 20.5373 58.372 24.1779H62.006ZM10.4337 13.9861H31.5896V11.9037H10.4386L10.4337 13.9861ZM10.4337 31.4836H31.5745V29.4208H10.4337V31.4836ZM31.6147 46.8986H10.4386V48.9713H31.6147V46.8986ZM10.4386 66.4981H31.5896V64.3912H10.4386V66.4981Z" fill="black"/>
<path d="M73.0031 6.85189C73.0031 5.58368 73.3885 4.34398 74.1105 3.2897C74.8326 2.23542 75.8588 1.41397 77.0593 0.929317C78.2598 0.444666 79.5806 0.318616 80.8545 0.567104C82.1284 0.815592 83.2982 1.42746 84.2158 2.32525C85.1333 3.22304 85.7573 4.3664 86.009 5.6106C86.2606 6.85479 86.1284 8.1439 85.6292 9.31474C85.13 10.4856 84.2862 11.4855 83.2046 12.188C82.123 12.8904 80.8522 13.2639 79.5531 13.2609C77.8178 13.2468 76.1579 12.5666 74.9322 11.3673C73.7065 10.168 73.0135 8.54598 73.0031 6.85189ZM79.5782 3.33378C78.8653 3.33091 78.1675 3.53422 77.5729 3.91807C76.9782 4.30191 76.5134 4.84911 76.2369 5.4906C75.9605 6.13208 75.8848 6.83911 76.0195 7.52252C76.1543 8.20592 76.4933 8.83507 76.9939 9.33057C77.4945 9.82608 78.1342 10.1658 78.8323 10.3067C79.5304 10.4477 80.2556 10.3837 80.9165 10.1227C81.5774 9.86178 82.1443 9.41559 82.5457 8.84045C82.9471 8.26532 83.165 7.58701 83.172 6.8911C83.1759 6.42699 83.086 5.96666 82.9075 5.53652C82.7289 5.10637 82.4651 4.71484 82.1313 4.38438C81.7974 4.05393 81.4001 3.79103 80.962 3.61075C80.5239 3.43047 80.0536 3.33635 79.5782 3.33378Z" fill="black"/>
<path d="M60.3295 45.409C60.6906 45.3894 61.0525 45.3894 61.4136 45.409C61.7648 45.4372 62.0924 45.5926 62.332 45.8447C62.5717 46.0968 62.706 46.4273 62.7086 46.7712C62.7332 46.9423 62.7226 47.1165 62.6774 47.2835C62.6322 47.4506 62.5533 47.6071 62.4453 47.744C62.3373 47.8809 62.2025 47.9954 62.0486 48.0808C61.8947 48.1661 61.7249 48.2207 61.5492 48.2412C60.5812 48.2992 59.6097 48.2664 58.6481 48.1432C58.3495 48.1087 58.0767 47.9609 57.8889 47.7316C57.701 47.5024 57.6131 47.2102 57.6442 46.9182C57.5933 46.6183 57.6623 46.3107 57.8369 46.0591C58.0116 45.8074 58.2786 45.6308 58.5828 45.5658C59.1538 45.4593 59.7301 45.3824 60.3094 45.3355L60.3295 45.409Z" fill="black"/>
</svg>
