<svg width="63" height="63" viewBox="0 0 95 85" fill="none" xmlns="http://www.w3.org/2000/svg">
<path d="M94.79 32.1197C94.7198 32.3059 94.6294 32.4921 94.5742 32.6881C94.123 34.3879 93.0504 35.8679 91.5587 36.8491C90.0669 37.8303 88.259 38.2449 86.4757 38.0147C84.6925 37.7845 83.0571 36.9255 81.8778 35.5995C80.6986 34.2735 80.0569 32.5722 80.0737 30.8163V30.0127L74.8236 29.2385L61.844 27.357C60.0906 27.1022 58.3372 26.8392 56.5839 26.5681C55.4545 26.3917 54.9024 25.7449 55.0781 24.8434C55.2538 23.9418 55.9765 23.5596 57.0607 23.7115C60.0722 24.1427 63.1088 24.5984 66.1354 25.0442C70.8233 25.7253 75.5163 26.4015 80.1892 27.1022C80.4626 27.1615 80.7482 27.1362 81.0063 27.03C81.2644 26.9238 81.4822 26.7418 81.6297 26.5093C82.2205 25.8264 82.9064 25.2277 83.6675 24.7307C83.9923 24.524 84.3879 24.4518 84.7672 24.5299C85.1465 24.608 85.4786 24.8301 85.6902 25.1471C85.9019 25.4642 85.9758 25.8504 85.8958 26.2207C85.8158 26.591 85.5884 26.9152 85.2636 27.1218C84.2584 27.7168 83.5173 28.657 83.1856 29.7579C82.9457 30.5391 82.952 31.3726 83.2035 32.1502C83.455 32.9279 83.9402 33.6138 84.596 34.1188C85.2096 34.6732 85.9815 35.032 86.8091 35.1476C87.6367 35.2631 88.4807 35.1299 89.2288 34.7656C90.0158 34.4434 90.685 33.897 91.1488 33.1976C91.6127 32.4983 91.8496 31.6786 91.8287 30.8457C91.8839 28.1508 91.8287 25.4558 91.8287 22.7658C91.8287 17.8659 91.8287 13.0101 91.8287 8.12986C91.8287 5.83182 90.4886 4.15606 88.3153 3.68077C87.3442 3.47097 86.3288 3.59071 85.4368 4.02022C84.5448 4.44973 83.8295 5.16333 83.4089 6.04323C82.9884 6.92313 82.8878 7.91672 83.1236 8.85998C83.3596 9.80323 83.9179 10.6398 84.7065 11.2315C84.9615 11.3972 85.2078 11.5754 85.4443 11.7656C85.7091 11.9795 85.8812 12.2833 85.9259 12.616C85.9706 12.9487 85.8846 13.2856 85.6852 13.5589C85.2586 14.2155 84.5509 14.5389 83.8683 14.1028C83.0334 13.5897 82.2793 12.9608 81.6297 12.236C81.4761 12.0075 81.2555 11.8297 80.9967 11.7256C80.7379 11.6216 80.4529 11.5962 80.1791 11.6529C75.9178 12.2899 71.6465 12.9023 67.3852 13.5246C63.932 14.0146 60.4888 14.5438 57.0356 15.0387C55.9514 15.1955 55.2136 14.7447 55.063 13.9019C54.9125 13.0591 55.4545 12.3487 56.5688 12.187C63.4953 11.1678 70.4235 10.1551 77.3533 9.14904C78.2267 9.02164 79.1 8.88444 79.9834 8.74725C80.0133 7.99917 80.0854 7.25326 80.1992 6.5129C80.5117 4.89849 81.3814 3.43731 82.6632 2.37271C83.9451 1.30811 85.5619 0.704334 87.2443 0.661941C88.9268 0.619548 90.5733 1.14109 91.9097 2.13972C93.2462 3.13835 94.1919 4.55379 94.5893 6.15031C94.6461 6.31741 94.7131 6.48103 94.79 6.6403V32.1197Z" fill="black"/>
<path d="M6.84351 61.0535H4.94625C3.79899 61.0497 2.69947 60.6047 1.88588 59.8151C1.0723 59.0254 0.610173 57.9547 0.599618 56.8347C0.599618 53.8948 0.599618 50.9549 0.599618 48.0149C0.598451 47.4595 0.712595 46.9096 0.935161 46.3984C1.15773 45.8872 1.48411 45.4253 1.89458 45.0407C3.83199 43.1265 5.78278 41.2221 7.74696 39.3274C8.1775 38.8992 8.69516 38.5637 9.26657 38.3426C9.83798 38.1215 10.4505 38.0197 11.0647 38.0437C12.9318 38.0731 14.799 38.0437 16.7263 38.0437V33.1389C15.607 33.3153 14.5229 33.4672 13.4438 33.6632C10.3921 34.2169 7.9628 32.2618 7.9628 29.2141C7.9628 22.658 7.9628 16.102 7.9628 9.54596C7.9628 6.50313 10.3921 4.58238 13.4839 5.10667C17.5495 5.80735 21.6251 6.45414 25.7057 7.06662C25.8571 7.07037 26.0075 7.04158 26.1463 6.98232C26.2851 6.92305 26.4088 6.83473 26.5088 6.72363C27.0117 6.05354 27.7024 5.53974 28.4977 5.24416C29.2929 4.94857 30.1588 4.8838 30.9909 5.05767C36.7278 5.97885 42.4548 6.93432 48.1867 7.8702C50.6712 8.27199 52.1318 9.92325 52.1368 12.383C52.1368 17.0542 52.1368 21.7238 52.1368 26.3917C52.1857 27.4804 51.8091 28.5466 51.0831 29.3744C50.3572 30.2022 49.3362 30.7299 48.2269 30.8506C44.8439 31.3896 41.4643 31.9351 38.0881 32.4872C37.8752 32.5347 37.6657 32.5953 37.4607 32.6685V38.0584H38.5799C47.9006 38.0584 57.2213 38.0584 66.5419 38.0584C67.2296 38.0369 67.9142 38.1567 68.5514 38.4099C69.1886 38.6631 69.7643 39.0442 70.2411 39.5283C72.0346 41.2956 73.8348 43.053 75.6417 44.8006C76.141 45.2636 76.5336 45.8251 76.7932 46.4478C77.0528 47.0705 77.1736 47.74 77.1475 48.4118C77.1023 51.1312 77.1475 53.8605 77.1475 56.5799C77.1761 57.1724 77.0777 57.7643 76.8586 58.3176C76.6395 58.8708 76.3045 59.3734 75.8751 59.7931C75.4456 60.2128 74.9312 60.5403 74.3647 60.7548C73.7982 60.9693 73.192 61.0661 72.5851 61.0388H71.0442L70.8183 61.323C71.018 61.3815 71.2075 61.4691 71.3804 61.5827C75.195 65.1694 76.5854 69.5303 75.195 74.5037C73.8047 79.4771 70.3264 82.5395 65.1918 83.7547C64.2952 83.9459 63.3789 84.0347 62.4613 84.0192C46.7345 84.0192 31.0076 84.0192 15.2808 84.0192C12.6447 84.0118 10.0709 83.2362 7.88928 81.7916C5.70765 80.347 4.01759 78.2994 3.03568 75.9112C2.05377 73.5229 1.82475 70.9028 2.37797 68.3867C2.93119 65.8706 4.24145 63.573 6.14082 61.7885C6.34159 61.6121 6.51726 61.3916 6.84351 61.0535ZM38.9012 58.1871H72.1835C73.6893 58.1871 74.1912 57.6971 74.1912 56.2565C74.1912 53.6841 74.2313 51.1067 74.1611 48.5392C74.125 47.9274 73.8813 47.3447 73.4684 46.8831C71.7485 45.093 69.97 43.3584 68.133 41.6794C67.646 41.2502 67.0216 40.9991 66.3663 40.9689C48.0361 40.9297 29.706 40.9297 11.3759 40.9689C10.7193 40.9962 10.0929 41.2456 9.60407 41.6745C7.79214 43.3257 6.09064 45.1044 4.30882 46.7802C4.04189 47.0248 3.83303 47.3235 3.6969 47.6553C3.56077 47.9871 3.50067 48.344 3.5208 48.7009C3.55091 51.1214 3.5208 53.5469 3.5208 55.9674C3.5208 57.7804 3.9374 58.1871 5.78447 58.1871H38.9012ZM38.851 61.0535H28.3659C24.0443 61.0535 19.7228 61.0143 15.4012 61.0535C13.8172 61.0412 12.2517 61.3858 10.8263 62.0604C9.40088 62.735 8.1541 63.7215 7.18288 64.9432C6.21167 66.1648 5.5422 67.5887 5.22653 69.1041C4.91086 70.6195 4.95751 72.1856 5.36284 73.6805C6.53733 78.1443 10.6782 81.1626 15.6873 81.1626C31.1365 81.1626 46.5839 81.1626 62.0297 81.1626C62.3057 81.1626 62.5818 81.1626 62.8578 81.1381C70.4117 80.6775 74.9943 73.0239 71.531 66.5316C69.5735 62.8616 66.3211 61.0682 62.105 61.0486C54.3553 61.029 46.6006 61.0535 38.846 61.0535H38.851ZM37.3854 29.6208C37.5525 29.632 37.7202 29.632 37.8873 29.6208C41.205 29.0818 44.5227 28.5477 47.8404 27.994C48.0414 27.9753 48.2365 27.9172 48.414 27.8234C48.5916 27.7295 48.748 27.6018 48.874 27.4477C48.9999 27.2937 49.0929 27.1165 49.1472 26.9266C49.2016 26.7368 49.2164 26.5382 49.1905 26.3427C49.1905 21.7075 49.1905 17.0705 49.1905 12.432C49.1905 11.4079 48.7137 10.9228 47.6848 10.7513L42.6204 9.91835C38.5481 9.26503 34.4759 8.61172 30.4037 7.9584C29.5705 7.8212 28.7975 8.22789 28.7523 8.98737C28.667 10.5259 28.7272 12.0694 28.7272 13.6668H31.1917C34.9962 13.6668 37.4305 16.053 37.4305 19.7867C37.3854 23.0206 37.3803 26.2791 37.3803 29.6208H37.3854ZM34.414 38.029C34.414 37.8134 34.4491 37.6713 34.4491 37.539C34.4491 31.5562 34.4491 25.5735 34.4491 19.5907C34.4491 17.7288 33.1793 16.5381 31.2469 16.5283C28.5516 16.5283 25.8563 16.5283 23.1559 16.5283C20.8923 16.5283 19.7328 17.6847 19.7278 19.919C19.7278 25.6617 19.7278 31.4043 19.7278 37.147C19.7278 37.4361 19.7278 37.7252 19.768 38.0486L34.414 38.029ZM25.5852 10.031C21.4394 9.36466 17.3738 8.69338 13.2982 8.07109C11.3859 7.7722 10.889 8.22299 10.889 10.1388V26.1958C10.889 27.2443 10.8639 28.2929 10.889 29.3366C10.9141 30.2872 11.5716 30.978 12.4249 30.8751C13.8704 30.6987 15.3009 30.4146 16.7715 30.1745C16.7715 26.5583 16.7715 23.0353 16.7715 19.5074C16.7502 18.7362 16.8897 17.9688 17.1815 17.2518C17.4733 16.5348 17.9113 15.8832 18.469 15.3365C19.0266 14.7898 19.6923 14.3595 20.4255 14.0716C21.1587 13.7837 21.9442 13.6443 22.7343 13.6619C23.6729 13.6619 24.6115 13.6619 25.5752 13.6619L25.5852 10.031Z" fill="black"/>
<path d="M69.8195 17.9542C74.136 17.9542 78.4542 17.9542 82.774 17.9542C83.9184 17.9542 84.591 18.6059 84.4755 19.5711C84.3802 20.3404 83.7879 20.8108 82.8543 20.8157C80.6459 20.8157 78.4425 20.8157 76.239 20.8157H56.7645C55.6151 20.8157 54.9425 20.164 55.058 19.1987C55.1533 18.405 55.7607 17.9542 56.7745 17.9542C61.1212 17.9476 65.4695 17.9476 69.8195 17.9542Z" fill="black"/>
<path d="M16.8418 43.8157C18.0064 43.8274 19.1412 44.176 20.1028 44.8174C21.0644 45.4589 21.8095 46.3643 22.2439 47.4192C22.6783 48.4741 22.7824 49.6311 22.5431 50.7438C22.3039 51.8565 21.7319 52.8749 20.8997 53.6702C20.0674 54.4655 19.0123 55.002 17.8676 55.2118C16.723 55.4216 15.5404 55.2953 14.4693 54.8488C13.3982 54.4024 12.4868 53.6559 11.8504 52.7037C11.214 51.7515 10.8812 50.6364 10.894 49.4996C10.8979 48.7439 11.0553 47.9964 11.3572 47.3005C11.659 46.6046 12.0993 45.9741 12.6524 45.4455C13.2056 44.9168 13.8607 44.5006 14.5798 44.2208C15.299 43.9411 16.0678 43.8034 16.8418 43.8157ZM19.7178 49.5682C19.7188 49.0003 19.5473 48.4448 19.2249 47.9721C18.9025 47.4994 18.4438 47.1306 17.9068 46.9124C17.3697 46.6942 16.7784 46.6363 16.2077 46.7462C15.6369 46.856 15.1124 47.1286 14.7003 47.5295C14.2883 47.9303 14.0072 48.4415 13.8928 48.9983C13.7783 49.5551 13.8356 50.1325 14.0573 50.6575C14.279 51.1826 14.6552 51.6317 15.1383 51.948C15.6214 52.2643 16.1898 52.4336 16.7715 52.4346C17.546 52.4184 18.2843 52.1116 18.833 51.5777C19.3817 51.0439 19.6986 50.3242 19.7178 49.5682Z" fill="black"/>
<path d="M38.1282 45.2562H47.3083C48.513 45.2562 49.1353 45.7462 49.1554 46.6478C49.1755 47.5494 48.533 48.1178 47.2933 48.1178C41.1163 48.1178 34.9343 48.1178 28.7473 48.1178C28.3947 48.1556 28.0397 48.0707 27.7449 47.8779C27.4501 47.6852 27.2346 47.3971 27.1362 47.0643C27.0292 46.7788 27.0295 46.4654 27.137 46.1801C27.2446 45.8947 27.4524 45.6559 27.7234 45.5061C28.0724 45.3316 28.4608 45.2456 28.8527 45.2562C31.9395 45.2464 35.0364 45.2562 38.1282 45.2562Z" fill="black"/>
<path d="M38.0829 53.8703H28.9279C27.7484 53.8703 27.121 53.3803 27.111 52.4445C27.1009 51.5086 27.7384 51.0039 28.9078 51.0039H47.3635C48.548 51.0039 49.1754 51.4939 49.1804 52.4249C49.1854 53.3559 48.553 53.8654 47.3835 53.8703H38.0829Z" fill="black"/>
<path d="M38.7657 78.2962H15.4917C11.5666 78.2962 8.32925 75.5424 7.96285 71.9263C7.75866 70.1062 8.2717 68.2784 9.39781 66.8142C10.5239 65.3499 12.1787 64.3589 14.026 64.0424C14.4783 63.9656 14.9373 63.9328 15.3963 63.9444C31.0361 63.9444 46.6743 63.9444 62.3108 63.9444C64.261 63.9444 66.1313 64.7007 67.5102 66.0469C68.8892 67.3931 69.6639 69.2189 69.6639 71.1228C69.6639 73.0266 68.8892 74.8524 67.5102 76.1986C66.1313 77.5448 64.261 78.3011 62.3108 78.3011L38.7657 78.2962ZM32.9083 66.8599H21.2587C23.161 69.7263 23.1309 72.5339 21.2587 75.3857H32.8983C31.0361 72.5437 30.9909 69.7361 32.9083 66.8599ZM44.8138 75.366H56.3982C54.5913 71.9018 54.5913 71.0738 56.358 66.8452H44.8138C46.681 69.6969 46.7111 72.5045 44.8138 75.366ZM19.7178 71.0689C19.7078 70.2165 19.4389 69.3862 18.9452 68.6831C18.4515 67.98 17.7551 67.4357 16.9443 67.1192C16.1336 66.8027 15.2448 66.7282 14.3906 66.9051C13.5364 67.082 12.7553 67.5024 12.146 68.113C11.5367 68.7236 11.1267 69.497 10.9679 70.3352C10.8091 71.1734 10.9087 72.0388 11.2541 72.8217C11.5994 73.6047 12.175 74.27 12.9079 74.7334C13.6408 75.1967 14.4981 75.4374 15.3712 75.4249C16.5332 75.3918 17.6365 74.9187 18.4477 74.1058C19.2589 73.2929 19.7144 72.2038 19.7178 71.0689ZM43.2729 71.1326C43.2769 70.2787 43.0211 69.4429 42.538 68.7312C42.0549 68.0194 41.3661 67.4637 40.5591 67.1345C39.7521 66.8052 38.8631 66.7173 38.0049 66.8819C37.1466 67.0464 36.3577 67.456 35.7382 68.0588C35.1187 68.6615 34.6964 69.4302 34.5249 70.2675C34.3534 71.1048 34.4404 71.9729 34.7749 72.7619C35.1094 73.5508 35.6763 74.2251 36.4037 74.6992C37.1312 75.1732 37.9864 75.4258 38.8611 75.4249C40.0226 75.4061 41.1313 74.9482 41.9542 74.1477C42.777 73.3472 43.2497 72.2664 43.2729 71.1326ZM66.8231 71.0689C66.814 70.2151 66.5455 69.3831 66.0516 68.6785C65.5577 67.9739 64.8606 67.4282 64.0487 67.1107C63.2368 66.7933 62.3466 66.7183 61.491 66.8952C60.6354 67.0722 59.8528 67.4931 59.2425 68.1047C58.6322 68.7163 58.2217 69.4911 58.0629 70.3307C57.9041 71.1703 58.0042 72.0371 58.3506 72.8211C58.697 73.6051 59.274 74.2711 60.0085 74.7346C60.743 75.1982 61.6019 75.4384 62.4764 75.4249C63.6381 75.3906 64.7406 74.9171 65.5516 74.1045C66.3625 73.2918 66.8184 72.2034 66.8231 71.0689Z" fill="black"/>
<path d="M27.076 19.38C27.9477 19.3791 28.8002 19.6303 29.5258 20.1019C30.2515 20.5735 30.8177 21.2443 31.1531 22.0298C31.4886 22.8153 31.5781 23.6802 31.4105 24.5153C31.2428 25.3504 30.8255 26.1184 30.2112 26.7222C29.5969 27.326 28.8131 27.7386 27.9588 27.9079C27.1045 28.0772 26.218 27.9957 25.4111 27.6736C24.6042 27.3516 23.9132 26.8033 23.4252 26.0982C22.9372 25.393 22.6741 24.5625 22.6691 23.7115C22.6611 23.143 22.7694 22.5787 22.9876 22.0515C23.2059 21.5244 23.5297 21.0451 23.9401 20.6417C24.3505 20.2383 24.8393 19.9189 25.3778 19.7023C25.9162 19.4856 26.4936 19.3761 27.076 19.38ZM28.5466 23.6723C28.5446 23.3892 28.4566 23.1129 28.2937 22.8786C28.1307 22.6443 27.9003 22.4625 27.6314 22.3562C27.3626 22.2498 27.0674 22.2238 26.7834 22.2813C26.4994 22.3388 26.2392 22.4773 26.0359 22.6792C25.8325 22.8812 25.6951 23.1375 25.6411 23.4157C25.587 23.694 25.6188 23.9816 25.7323 24.2422C25.8458 24.5028 26.036 24.7246 26.2788 24.8796C26.5216 25.0346 26.806 25.1158 27.0961 25.1129C27.477 25.0937 27.8368 24.9364 28.1051 24.6717C28.3734 24.4071 28.5309 24.0542 28.5466 23.6821V23.6723Z" fill="black"/>
</svg>
