<svg width="63" height="63" viewBox="0 0 87 84" fill="none" xmlns="http://www.w3.org/2000/svg">
<path d="M13.6875 66.309V63.81L10.947 63.6777L11.1779 66.5834L13.6875 66.309Z" fill="black"/>
<path d="M11.0925 69.0236V71.6401L13.6975 71.3706V69.0236H11.0925Z" fill="black"/>
<path d="M11.1377 76.7359L13.6724 76.5448V74.1292L11.1377 73.9871V76.7359Z" fill="black"/>
<path d="M72.0507 66.1669H74.6607V63.521H71.9202L72.0507 66.1669Z" fill="black"/>
<path d="M74.5604 68.6168L72.0508 68.7491V69.0382C72.0508 69.1656 72.0508 69.2734 72.0207 69.3763C71.9947 69.5696 71.9829 69.7645 71.9855 69.9594C72.0021 70.1714 72.0306 70.3825 72.0708 70.5915C72.0708 70.6699 72.0959 70.7483 72.106 70.8218L72.1411 71.0521L72.372 71.1011C72.8187 71.2042 73.2739 71.2681 73.7322 71.2922C73.8647 71.3034 73.9981 71.2888 74.1248 71.2493C74.2514 71.2097 74.3688 71.146 74.47 71.0619C74.8665 70.6993 74.7862 70.0133 74.6306 68.9206L74.5604 68.6168Z" fill="black"/>
<path d="M72.9693 73.8254C72.7785 73.8254 72.5777 73.8254 72.382 73.796L72.0056 73.7617V76.5938L72.4171 76.5106C72.648 76.4616 72.8739 76.4322 73.0897 76.4028C73.5855 76.3743 74.068 76.2351 74.5001 75.9961C74.7812 75.8148 74.8113 75.3297 74.7862 74.9573C74.736 74.237 74.4901 74.1145 74.4098 74.0753C73.9541 73.8901 73.4624 73.8048 72.9693 73.8254Z" fill="black"/>
<path d="M42.7787 50.3942C47.3911 50.3952 51.9001 49.0609 55.7356 46.56C59.5711 44.0592 62.5607 40.5041 64.3265 36.3445C66.0922 32.1848 66.5547 27.6074 65.6555 23.1912C64.7563 18.7749 62.5358 14.7181 59.2747 11.5339C56.0137 8.3497 51.8586 6.18107 47.335 5.30229C42.8113 4.42351 38.1224 4.87404 33.8611 6.59691C29.5997 8.31979 25.9575 11.2376 23.3949 14.9814C20.8323 18.7251 19.4645 23.1267 19.4645 27.6294C19.4712 33.6641 21.9295 39.45 26.3001 43.7177C30.6708 47.9853 36.597 50.3864 42.7787 50.3942ZM22.3456 27.6294C22.3456 23.683 23.5444 19.8252 25.7904 16.5439C28.0364 13.2627 31.2287 10.7054 34.9636 9.19535C38.6985 7.68535 42.8082 7.29051 46.7729 8.06078C50.7377 8.83104 54.3794 10.7318 57.2375 13.5227C60.0957 16.3135 62.0418 19.8692 62.8299 23.7399C63.6179 27.6105 63.2125 31.6224 61.6648 35.2682C60.1171 38.9139 57.4967 42.0297 54.135 44.2215C50.7733 46.4133 46.8213 47.5826 42.7787 47.5817C37.3607 47.5752 32.1666 45.4708 28.3359 41.7303C24.5052 37.9898 22.3509 32.9186 22.3456 27.6294Z" fill="black"/>
<path d="M43.4412 75.3199C44.5153 75.3199 45.5653 75.009 46.4584 74.4264C47.3515 73.8439 48.0476 73.0158 48.4586 72.0471C48.8697 71.0783 48.9772 70.0123 48.7676 68.9839C48.5581 67.9555 48.0409 67.0108 47.2814 66.2694C46.5218 65.5279 45.5542 65.023 44.5007 64.8184C43.4472 64.6139 42.3553 64.7189 41.363 65.1201C40.3706 65.5214 39.5224 66.2009 38.9257 67.0728C38.3289 67.9446 38.0104 68.9697 38.0104 70.0182C38.0118 71.4239 38.5844 72.7717 39.6026 73.7656C40.6207 74.7596 42.0013 75.3186 43.4412 75.3199ZM40.8915 70.0182C40.8915 69.5259 41.041 69.0447 41.3212 68.6353C41.6013 68.226 41.9996 67.907 42.4655 67.7186C42.9314 67.5302 43.444 67.4809 43.9386 67.5769C44.4332 67.673 44.8876 67.91 45.2442 68.2582C45.6008 68.6063 45.8436 69.0498 45.942 69.5326C46.0404 70.0155 45.9899 70.516 45.7969 70.9708C45.6039 71.4256 45.2771 71.8144 44.8578 72.0879C44.4385 72.3614 43.9455 72.5074 43.4412 72.5074C42.7654 72.5061 42.1176 72.2434 41.6397 71.7769C41.1619 71.3104 40.8928 70.678 40.8915 70.0182Z" fill="black"/>
<path d="M42.3571 32.5881C43.3304 32.59 44.2818 32.306 45.0874 31.7729C45.8931 31.2399 46.5157 30.4824 46.8744 29.5992C53.1484 29.5992 58.7348 29.5453 59.8641 29.5404H61.2946V28.1439C61.3459 25.7489 60.9086 23.3679 60.0082 21.1395C59.1078 18.9111 57.7623 16.8798 56.05 15.1639C54.3377 13.448 52.2929 12.0817 50.0346 11.1447C47.7762 10.2077 45.3496 9.71862 42.8958 9.70594C40.4419 9.69327 38.0101 10.1572 35.7417 11.0709C33.4733 11.9845 31.4138 13.3296 29.6831 15.0277C27.9523 16.7258 26.5848 18.7431 25.6603 20.9621C24.7358 23.1811 24.2727 25.5574 24.298 27.9528V28.5457L24.7247 28.9524C25.2266 29.4424 25.3922 29.5943 37.87 29.6139C38.2285 30.4901 38.8475 31.2416 39.6471 31.7716C40.4468 32.3016 41.3906 32.586 42.3571 32.5881ZM42.3571 25.9439C42.7467 25.9429 43.1278 26.0548 43.4521 26.2655C43.7765 26.4762 44.0294 26.7761 44.1789 27.1273C44.3285 27.4785 44.3679 27.8651 44.2921 28.2381C44.2164 28.6112 44.0289 28.9539 43.7534 29.2228C43.4779 29.4917 43.1269 29.6747 42.7448 29.7487C42.3627 29.8226 41.9666 29.7842 41.6069 29.6382C41.2472 29.4922 40.94 29.2453 40.7241 28.9287C40.5083 28.612 40.3936 28.24 40.3946 27.8597C40.3926 27.6069 40.442 27.3562 40.5397 27.122C40.6374 26.8879 40.7816 26.6749 40.9641 26.4955C41.1465 26.316 41.3635 26.1736 41.6026 26.0764C41.8417 25.9792 42.0981 25.9291 42.3571 25.9292V25.9439ZM41.3884 17.0261C41.3884 16.8571 41.4572 16.6951 41.5796 16.5757C41.7019 16.4562 41.8679 16.3891 42.0409 16.3891H42.4625C42.6347 16.3904 42.7994 16.4581 42.9207 16.5774C43.042 16.6967 43.11 16.858 43.11 17.0261V23.1803C42.8612 23.1392 42.6094 23.1179 42.3571 23.1166C42.0319 23.1178 41.7076 23.1489 41.3884 23.2097V17.0261ZM45.9911 24.7483V17.0114C45.9911 16.1017 45.6209 15.2293 44.962 14.5861C44.3031 13.9428 43.4094 13.5814 42.4776 13.5814H42.056C41.1262 13.5879 40.2363 13.9513 39.5789 14.5931C38.9214 15.235 38.5491 16.1037 38.5425 17.0114V24.9835C38.1281 25.515 37.8339 26.1262 37.6793 26.7768C32.5597 26.7768 28.986 26.7229 27.2493 26.6592C27.5718 22.842 29.355 19.2832 32.2439 16.6915C35.1328 14.0997 38.9155 12.6651 42.839 12.6731C46.7625 12.6811 50.539 14.1313 53.4167 16.7348C56.2944 19.3384 58.0623 22.9044 58.3684 26.7229C54.855 26.7474 50.9601 26.767 47.1103 26.7768C46.9149 26.0207 46.5303 25.3237 45.9911 24.7483Z" fill="black"/>
<path d="M49.4241 32.6959H35.2951C34.3175 32.6959 33.38 33.0746 32.6883 33.749C31.9966 34.4233 31.6073 35.3381 31.606 36.2924V40.2907C31.6073 41.2454 31.9964 42.1607 32.6879 42.8358C33.3795 43.5109 34.3171 43.8908 35.2951 43.8921H49.4241C50.4021 43.8908 51.3397 43.5109 52.0313 42.8358C52.7228 42.1607 53.1119 41.2454 53.1133 40.2907V36.2924C53.1119 35.3381 52.7227 34.4233 52.031 33.749C51.3393 33.0746 50.4017 32.6959 49.4241 32.6959ZM34.487 36.2924C34.4883 36.0835 34.5739 35.8836 34.7251 35.736C34.8764 35.5883 35.0812 35.5048 35.2951 35.5035H49.4241C49.638 35.5048 49.8428 35.5883 49.9941 35.736C50.1454 35.8836 50.2309 36.0835 50.2322 36.2924V40.2907C50.2309 40.4995 50.1454 40.6994 49.9941 40.8471C49.8428 40.9947 49.638 41.0783 49.4241 41.0796H35.2951C35.0808 41.0796 34.8752 40.9964 34.7237 40.8485C34.5721 40.7005 34.487 40.4999 34.487 40.2907V36.2924Z" fill="black"/>
<path d="M81.6625 56.9502C80.7446 56.952 79.8458 57.2068 79.0698 57.6853C78.2937 58.1638 77.6718 58.8466 77.2757 59.6549H54.4132C54.0178 59.1158 53.4965 58.6764 52.8925 58.373C52.2885 58.0697 51.6192 57.9112 50.9399 57.9106H47.7678V55.1765C54.5616 53.9853 60.6812 50.4263 64.9889 45.1611C69.2966 39.896 71.4992 33.2829 71.1874 26.5514C70.8131 19.6673 67.8468 13.1608 62.8581 8.28169C57.8694 3.40252 51.21 0.494641 44.159 0.116509C38.0983 -0.183074 32.1 1.43205 27.0535 4.72239C26.8856 4.82958 26.7465 4.97451 26.6478 5.14502C26.5492 5.31553 26.4938 5.50666 26.4864 5.70237C26.478 5.90359 26.5193 6.10383 26.6066 6.28628C26.694 6.46873 26.8248 6.62807 26.9883 6.75094L27.1991 6.91753C27.4164 7.09005 27.6843 7.19063 27.964 7.20472C28.2437 7.21882 28.5207 7.1457 28.755 6.99593C33.1633 4.14779 38.3744 2.71876 43.6571 2.90943C50.1495 3.15882 56.3007 5.81378 60.8589 10.334C65.4171 14.8543 68.0397 20.9002 68.1932 27.2414C68.3467 33.5826 66.0195 39.7427 61.6851 44.4681C57.3507 49.1934 51.3348 52.1291 44.8617 52.6775H40.5602C34.393 52.1195 28.6392 49.4075 24.3561 45.0399C20.073 40.6723 17.5484 34.9425 17.246 28.9033C16.9911 23.4299 18.6047 18.0287 21.8336 13.5471C22.0246 13.2826 22.1011 12.9553 22.0466 12.6361C21.9921 12.317 21.811 12.0316 21.5425 11.8419L21.1861 11.592C21.0592 11.5024 20.9152 11.4385 20.7627 11.404C20.6101 11.3695 20.452 11.3651 20.2977 11.3911C20.142 11.4185 19.9934 11.4759 19.8606 11.5601C19.7279 11.6442 19.6137 11.7534 19.5247 11.8811C16.7459 15.7336 15.018 20.2135 14.5039 24.8984C13.9897 29.5833 14.7063 34.3189 16.586 38.6586C18.4657 42.9983 21.4466 46.7992 25.2476 49.7028C29.0487 52.6064 33.5447 54.5172 38.3116 55.2549V57.9057H34.6225C33.9433 57.9063 33.2739 58.0648 32.6699 58.3681C32.0659 58.6715 31.5446 59.1109 31.1492 59.6501H9.29558C8.82104 58.6764 8.02116 57.8895 7.02754 57.4186C6.03391 56.9478 4.90572 56.8212 3.82856 57.0595C2.7514 57.2979 1.78943 57.8871 1.1009 58.7301C0.412363 59.5732 0.0382687 60.62 0.0401683 61.6982V78.6469C0.0412081 79.7204 0.414497 80.762 1.09924 81.602C1.78399 82.442 2.73987 83.0309 3.81122 83.2729C4.88257 83.5149 6.0063 83.3958 6.99941 82.9348C7.99253 82.4738 8.79656 81.6982 9.28054 80.7342H31.2948H31.3701C31.7712 81.1941 32.2696 81.5637 32.8311 81.8175C33.3926 82.0712 34.0038 82.2032 34.6225 82.2042H50.9399C51.5571 82.2027 52.1667 82.0705 52.7265 81.8167C53.2863 81.563 53.783 81.1936 54.1823 80.7342H61.6007C61.9828 80.7342 62.3492 80.5861 62.6193 80.3223C62.8895 80.0586 63.0412 79.7009 63.0412 79.328C63.0412 78.955 62.8895 78.5973 62.6193 78.3336C62.3492 78.0699 61.9828 77.9217 61.6007 77.9217H55.2263V62.4773H76.8089V77.9511H66.0327C65.6506 77.9511 65.2842 78.0993 65.0141 78.363C64.7439 78.6267 64.5922 78.9844 64.5922 79.3574C64.5922 79.7303 64.7439 80.088 65.0141 80.3518C65.2842 80.6155 65.6506 80.7636 66.0327 80.7636H77.2857C77.7693 81.7327 78.5759 82.5125 79.5732 82.975C80.5705 83.4376 81.6993 83.5555 82.7743 83.3094C83.8493 83.0633 84.8066 82.4678 85.4893 81.6206C86.1719 80.7733 86.5393 79.7248 86.5311 78.6469V61.7031C86.5285 60.4434 86.0147 59.2359 85.1022 58.3452C84.1897 57.4544 82.9529 56.9528 81.6625 56.9502ZM79.3637 78.7351C79.3637 78.7106 79.3637 78.691 79.3637 78.6665V61.7031C79.3913 61.1254 79.6459 60.5803 80.0744 60.181C80.503 59.7818 81.0726 59.559 81.665 59.559C82.2574 59.559 82.827 59.7818 83.2556 60.181C83.6841 60.5803 83.9387 61.1254 83.9663 61.7031V78.6469C83.9655 79.1737 83.7749 79.6835 83.4277 80.0869C83.0806 80.4904 82.5992 80.7617 82.0677 80.8534C81.5363 80.9451 80.9887 80.8514 80.521 80.5886C80.0532 80.3259 79.695 79.9108 79.5092 79.4162C79.5117 79.3868 79.5117 79.3573 79.5092 79.328C79.5072 79.1221 79.4575 78.9194 79.3637 78.7351ZM41.2177 55.5587C41.544 55.5587 41.8702 55.593 42.2216 55.6028H42.8389C43.5416 55.6028 44.2393 55.5684 44.9319 55.5194V57.7538H41.2378L41.2177 55.5587ZM9.77744 77.9413V62.4773H30.3562V77.9511L9.77744 77.9413ZM7.06705 79.4358C6.88368 79.9338 6.52591 80.3526 6.0569 80.6181C5.5879 80.8836 5.03785 80.9787 4.50396 80.8866C3.97008 80.7946 3.48673 80.5213 3.13925 80.1151C2.79176 79.7088 2.60254 79.1957 2.60501 78.6665V61.7031C2.60747 61.188 2.79096 60.6894 3.12482 60.2905C3.45868 59.8916 3.92268 59.6167 4.43923 59.5118C4.95579 59.4068 5.49359 59.4781 5.96276 59.7137C6.43194 59.9494 6.80405 60.3351 7.01687 60.8064C7.00932 60.8912 7.00932 60.9764 7.01687 61.0612C7.01927 61.323 7.0957 61.579 7.23772 61.8011V78.6469C7.23772 78.6469 7.23772 78.691 7.23772 78.7155C7.1392 78.9054 7.08764 79.1151 7.08715 79.328C7.07673 79.3632 7.06998 79.3993 7.06705 79.4358ZM32.9009 62.0951C32.8985 62.051 32.8985 62.0069 32.9009 61.9628C33.1149 61.7176 33.2355 61.4078 33.2422 61.0857C33.4009 60.8782 33.6069 60.7095 33.8438 60.593C34.0807 60.4765 34.3421 60.4154 34.6074 60.4144H38.2966V60.5712H47.7527V60.4144H50.9249C51.3811 60.4157 51.8182 60.5932 52.1408 60.9081C52.4633 61.223 52.6451 61.6498 52.6465 62.0951V78.0246C52.6451 78.4699 52.4633 78.8967 52.1408 79.2116C51.8182 79.5265 51.3811 79.704 50.9249 79.7053H34.6225C34.1663 79.704 33.7292 79.5265 33.4066 79.2116C33.084 78.8967 32.9022 78.4699 32.9009 78.0246V62.0951Z" fill="black"/>
</svg>
