<svg width="63" height="63" viewBox="0 0 86 84" fill="none" xmlns="http://www.w3.org/2000/svg">
<path d="M85.4033 36.0503C85.2628 36.6187 85.1222 37.192 84.9767 37.7604C84.3057 40.2084 82.9603 42.4301 81.0868 44.1841C74.2272 50.8675 67.3676 57.5542 60.5081 64.2442C60.0061 64.7342 59.8556 65.0576 60.2019 65.7142C61.1053 67.4928 60.6637 69.4479 59.0977 70.9914C56.2618 73.7843 53.4059 76.5527 50.565 79.3212L49.3203 80.5461C47.167 82.6237 45.5308 82.8932 42.7702 81.5996C42.3938 81.9426 42.0274 82.3052 41.6258 82.6384C40.7632 83.361 39.6585 83.7489 38.522 83.7281C37.3855 83.7073 36.2965 83.2794 35.4622 82.5257C34.1271 81.3056 32.8271 80.0365 31.5723 78.7332C30.7649 77.8937 30.3155 76.7855 30.3155 75.634C30.3155 74.4825 30.7649 73.3743 31.5723 72.5348C31.8887 72.2398 32.2239 71.9649 32.5762 71.7116C31.743 70.3789 31.3917 69.0902 31.8635 67.7917C32.1275 66.999 32.5622 66.2706 33.1383 65.6554C36.5363 62.2598 39.9845 58.9181 43.4327 55.5714C45.1142 53.9447 46.8759 53.7683 49.4206 54.8561L59.5343 44.9926C58.4652 45.1151 57.3811 45.2425 56.2969 45.3601C50.2867 46.0953 44.2216 46.3101 38.1726 46.002C33.7457 45.7374 29.3087 45.3993 24.9219 44.7917C18.5375 43.9097 12.2936 42.4251 6.56165 39.4018C4.62046 38.4416 2.9098 37.0905 1.54245 35.4378C0.517241 34.1753 -0.0273736 32.6045 0.00155519 30.9936C0.0417088 26.7895 0.0567664 22.5854 0.00155519 18.3862C-0.0187931 17.409 0.160718 16.4377 0.529582 15.529C0.898447 14.6204 1.44925 13.7927 2.14977 13.0944C4.51884 10.6101 7.55546 9.17448 10.7226 7.94951C15.787 6.01895 21.0722 4.96056 26.4327 4.19618C27.557 4.03449 28.6863 3.9267 29.8106 3.7601C30.0214 3.7307 30.3426 3.59841 30.3928 3.44161C30.8948 1.87855 32.0191 0.991658 33.5198 0.442871H51.9001C53.18 0.932859 54.3344 1.59435 54.7811 2.92711C55.0221 3.6376 55.4688 3.76499 56.0962 3.85809C59.0023 4.28438 61.9185 4.64207 64.7995 5.19086C69.3469 6.05814 73.8039 7.2831 77.9498 9.37045C81.2876 11.0511 84.3141 13.0552 85.4033 16.8771V36.0503ZM79.3803 25.8635C77.1869 26.7454 74.9784 27.7646 72.6897 28.5388C66.6666 30.5722 60.4629 31.5718 54.1537 32.15C47.2128 32.782 40.2293 32.8361 33.2789 32.3117C32.777 32.2725 32.275 32.3117 31.6928 32.3117C32.7468 35.4035 33.7758 38.4268 34.8097 41.4451C35.397 43.1649 35.397 43.1747 37.229 43.2629C45.7158 43.6893 54.2247 43.1698 62.591 41.7146C63.0422 41.6207 63.4566 41.4031 63.7856 41.0874C68.8684 36.1581 73.9378 31.2158 78.9938 26.2604C79.1494 26.1036 79.3 25.9419 79.3803 25.8635ZM30.2975 6.35703C27.6072 6.77352 25.0273 7.10672 22.4725 7.57711C17.8348 8.42479 13.2824 9.58605 9.02106 11.6342C7.14388 12.5358 5.36206 13.5942 4.00186 15.167C3.6046 15.5683 3.2997 16.0478 3.10754 16.5734C2.91538 17.099 2.84039 17.6586 2.8876 18.2147C3.07833 19.8219 4.14742 20.8901 5.33697 21.8456C7.28027 23.3422 9.46498 24.5129 11.8017 25.3098C20.1988 28.4212 28.9824 29.4943 37.9016 29.8569C44.896 30.1629 51.9044 29.8348 58.8367 28.8769C64.0566 28.1419 69.2013 27.0786 74.1101 25.1432C76.695 24.124 79.1845 22.9333 81.137 20.9391C82.0655 19.9934 82.7482 18.9252 82.6076 17.5091C82.4671 16.0931 81.6038 15.118 80.5999 14.2409C78.3664 12.281 75.6861 11.1197 72.9155 10.1251C68.4965 8.60793 63.9331 7.52619 59.2934 6.89602C57.9382 6.69023 56.573 6.56283 55.1726 6.40603V9.00787C55.5742 9.07157 55.9506 9.14996 56.3321 9.18916C60.3322 9.5652 64.2909 10.2833 68.1623 11.3353C70.5665 12.0115 72.9256 12.8053 74.9583 14.2752C75.9622 15.0053 76.7954 15.8677 77.0564 17.1123C77.4328 18.9448 76.5846 20.3658 75.119 21.287C73.5269 22.3127 71.8192 23.1561 70.0295 23.8006C63.8057 25.9468 57.2907 26.6474 50.7507 27.0345C42.6622 27.5657 34.5395 27.3097 26.503 26.2701C22.3932 25.8007 18.3517 24.8752 14.4569 23.5115C12.6399 22.8304 10.8782 22.0415 9.50793 20.6059C7.89174 18.9252 7.86163 16.7889 9.54306 15.1719C10.3331 14.4141 11.2328 13.7736 12.2133 13.2708C16.2537 11.2128 20.6757 10.419 25.1076 9.70855C26.8242 9.42925 28.5508 9.24306 30.2925 9.00787L30.2975 6.35703ZM30.2573 18.8909V11.791C26.4493 12.13 22.6758 12.7708 18.9741 13.7069C16.59 14.339 14.221 15.0249 12.1781 16.4508C10.7326 17.4602 10.7527 18.2343 12.1781 19.3025C12.3461 19.4443 12.5296 19.5676 12.7252 19.67C14.0289 20.3206 15.3696 20.8981 16.7406 21.3997C23.642 23.5703 30.7944 24.2269 37.9819 24.4817C44.5292 24.7624 51.0892 24.5035 57.5919 23.7075C61.7227 23.1734 65.8284 22.5266 69.7283 21.0567C71.1155 20.521 72.4302 19.8217 73.6433 18.9742C74.6923 18.2491 74.6472 17.4602 73.6132 16.7399C72.5518 16.0081 71.4105 15.3934 70.2102 14.9073C66.752 13.5206 63.098 12.8592 59.4239 12.3006C58.0336 12.0899 56.6332 11.9478 55.1827 11.7714V18.8909L63.1783 18.1069C63.3188 18.9791 63.4594 19.817 63.62 20.797C49.7363 22.3357 35.7188 22.3357 21.8351 20.797L22.2969 18.1119L30.2573 18.8909ZM52.3719 19.0624V4.97037C52.3719 3.53961 51.9503 3.13781 50.4897 3.13781H35.0707C33.4847 3.13781 33.0982 3.5102 33.0982 5.03896C33.0982 9.40312 33.0982 13.7689 33.0982 18.1363V19.0624H52.3719ZM48.8886 77.0623L37.1939 65.6505C36.4661 66.3316 35.6479 67.0224 34.9252 67.7966C34.6352 68.1325 34.4804 68.5599 34.4896 68.999C34.4989 69.4381 34.6715 69.8589 34.9754 70.1829C35.3167 70.5749 35.7082 70.9227 36.0846 71.2853C38.6946 73.8365 41.3046 76.3861 43.9146 78.9341C44.818 79.8063 45.8219 79.9679 46.6601 79.2624C47.4983 78.5568 48.1809 77.7728 48.8886 77.0623ZM55.2329 71.0403L57.1552 69.0804C58.0938 68.1004 58.0988 67.0959 57.1552 66.1405C56.4425 65.4202 55.7047 64.7195 54.9819 64.009C52.7835 61.8678 50.5901 59.7167 48.3867 57.5804C47.5133 56.7327 46.5296 56.571 45.7215 57.2668C44.9134 57.9626 44.1906 58.8054 43.4729 59.5452L55.2329 71.0403ZM82.7682 26.6474L70.9129 37.9907C71.3546 37.9907 71.6206 38.0299 71.8866 38.0299C74.8981 38.0299 77.9398 37.9955 80.9663 38.0592C81.8497 38.0592 82.2513 37.78 82.2914 36.9813C82.4621 33.5416 82.6076 30.1166 82.7682 26.6474ZM52.9491 73.1081L41.3046 61.7502L39.3973 63.5141L51.0418 74.8819L52.9491 73.1081ZM57.8128 62.7302L63.7555 56.9336H51.86L57.8128 62.7302ZM75.1139 46.247C74.9848 46.2025 74.8522 46.1681 74.7174 46.1441H62.9875C62.8269 46.1441 62.6111 46.144 62.5157 46.2322C61.6675 47.0211 60.8443 47.8345 59.8756 48.7704C64.1119 48.7704 68.1021 48.7704 72.0924 48.7704C72.3334 48.7553 72.5618 48.6602 72.7399 48.5009C73.5128 47.7757 74.2557 47.0505 75.1139 46.247ZM54.4398 54.0084C54.6507 54.1015 54.6958 54.1407 54.741 54.1407H66.5612C66.7237 54.1602 66.8881 54.1256 67.028 54.0427C67.8712 53.2538 68.6944 52.4453 69.6631 51.5045C65.4219 51.5045 61.4266 51.5045 57.4363 51.5045C57.1938 51.5212 56.9648 51.6199 56.7888 51.7838C56.0159 52.4845 55.268 53.2097 54.4398 53.9937V54.0084ZM80.4443 40.9061C80.2436 40.813 80.1984 40.7738 80.1532 40.7738H68.4936C68.333 40.7738 68.1122 40.7738 68.0168 40.8669C67.1886 41.6705 66.3805 42.4986 65.4771 43.405C69.6079 43.405 73.6032 43.405 77.5984 43.405C77.8142 43.3989 78.0213 43.3211 78.1857 43.1845C78.9336 42.4398 79.6513 41.6901 80.4443 40.8914V40.9061ZM8.32841 37.1822C8.1929 36.6922 8.12765 36.3786 8.02726 36.0797C6.77246 32.4146 5.51766 28.7299 4.2729 25.0795C4.16781 24.7395 3.99306 24.4239 3.75924 24.1518C3.52542 23.8798 3.23741 23.6569 2.91269 23.4968C2.88629 23.6444 2.86787 23.7932 2.85748 23.9427C2.85748 26.3926 2.85748 28.8769 2.85748 31.3464C2.84724 31.7785 2.93106 32.2076 3.10342 32.6057C4.14742 34.7861 6.09487 35.9866 8.32841 37.1822ZM14.7881 39.7938C13.453 35.8053 12.148 32.0373 10.8631 28.2693C10.8029 28.0929 10.7226 27.8577 10.582 27.7793C9.67356 27.3677 8.75003 26.9904 7.71105 26.5543C9.09133 30.6016 10.4114 34.5019 11.7264 38.3924C11.787 38.6005 11.9296 38.7767 12.1229 38.8824C12.9511 39.1862 13.7943 39.4508 14.7881 39.7938ZM14.0403 28.9847C15.3553 32.8409 16.6201 36.5501 17.895 40.2544C17.9603 40.4406 18.1108 40.6856 18.2715 40.7444C19.0595 40.96 19.8625 41.1168 20.7058 41.303C20.72 41.1973 20.72 41.0902 20.7058 40.9845C19.4861 37.3978 18.2715 33.8111 17.0267 30.2048C16.9829 30.0898 16.9159 29.9846 16.8297 29.8954C16.7435 29.8062 16.6398 29.7347 16.5248 29.6854C15.7518 29.4355 14.9588 29.2493 14.0403 28.9847ZM20.0633 30.5526C21.3231 34.2373 22.5729 37.8682 23.8076 41.4941C23.8628 41.6509 23.9934 41.8763 24.1238 41.9057C24.9169 42.0625 25.7149 42.1703 26.6335 42.3221C25.5694 39.2058 24.4401 36.3296 23.6219 33.3652C23.12 31.5718 22.2918 30.5379 20.3394 30.5526H20.0633ZM32.2299 42.9346C32.2299 42.7925 32.275 42.7337 32.26 42.6896C31.0805 39.2058 29.906 35.722 28.7114 32.2431C28.671 32.1492 28.61 32.0651 28.5329 31.9965C28.4557 31.928 28.3642 31.8767 28.2647 31.8462C27.5369 31.7237 26.7991 31.6649 26.0311 31.5767C26.0175 31.6775 26.0175 31.7797 26.0311 31.8805C27.2123 35.366 28.3985 38.8481 29.5898 42.3271C29.6269 42.419 29.6844 42.5019 29.7582 42.5696C29.8319 42.6374 29.9201 42.6884 30.0164 42.719C30.7693 42.817 31.5222 42.8709 32.2449 42.9346H32.2299ZM40.6973 79.8259L34.4182 73.6863C32.7268 75.0044 32.6565 75.999 34.2024 77.5082C35.2063 78.4882 36.1649 79.4191 37.1386 80.3795C37.3963 80.6877 37.752 80.9033 38.1492 80.992C38.5465 81.0807 38.9627 81.0376 39.332 80.8695C39.8308 80.5732 40.2938 80.2232 40.7123 79.8259H40.6973Z" fill="black"/>
</svg>
