<svg width="63" height="63" viewBox="0 0 84 84" fill="none" xmlns="http://www.w3.org/2000/svg">
<path d="M47.7043 83.3926C46.7908 80.8251 48.663 79.1003 49.712 77.111C50.5552 75.543 51.2177 73.882 52.0208 72.2944C53.6771 69.0409 55.4088 65.8167 57.04 62.5534C58.1643 60.3142 59.2183 58.0406 60.2272 55.7475C60.2726 55.5317 60.2678 55.3087 60.2131 55.0949C60.1583 54.8812 60.0551 54.6823 59.911 54.5127C58.7164 53.2045 57.3562 52.2882 55.3937 52.5087C53.9339 52.6263 52.4667 52.6263 51.0069 52.5087C49.732 52.4401 48.9239 51.759 48.9039 50.436C48.9039 49.2454 48.9039 48.0547 48.9039 46.7317C48.9067 46.3338 49.0635 45.9517 49.3427 45.6618C49.6219 45.372 50.003 45.1958 50.4096 45.1687C54.8566 44.8012 59.2133 44.1299 63.3391 46.5847C65.6781 40.2149 69.2166 37.6914 73.6536 39.2643C75.6964 39.9895 77.6338 41.4006 78.1708 43.4243C78.7079 45.4479 78.7631 47.7705 78.0504 49.6079C77.3778 51.3474 75.4304 52.6214 73.8744 54.2824C76.2485 55.0174 77.7593 53.6161 79.3955 52.9546C80.5349 52.494 81.1974 52.298 81.9905 53.4446C83.2954 55.3506 83.7673 56.2669 83.7572 57.7957C83.7524 58.2297 83.6247 58.654 83.3882 59.0215C83.1517 59.389 82.8156 59.6855 82.4171 59.8781C79.9326 61.0786 77.4682 62.2741 74.9736 63.4109C74.7266 63.5065 74.4617 63.5502 74.1962 63.5393C73.9307 63.5283 73.6706 63.4628 73.4327 63.3472C72.208 62.6269 71.1189 61.6812 69.8791 60.9953C69.593 60.8385 68.6042 61.2501 68.4788 61.5931C68.2529 62.2104 68.1324 63.3325 68.4788 63.6118C70.0699 64.8564 71.9219 65.7923 73.498 67.0417C74.03 67.4582 74.5018 68.5999 74.281 69.1585C73.498 71.2507 72.4339 73.2401 71.4602 75.2588C70.9583 76.2927 70.3509 77.2825 69.9544 78.3506C69.5027 79.5854 68.8301 80.3106 67.3946 80.2469C66.1248 80.1881 64.8499 80.2469 63.575 80.2469C61.4318 80.2469 60.7141 78.8896 61.7882 76.9836C62.6866 75.3813 63.6001 73.7791 64.3931 72.1278C64.5939 71.7113 64.5337 70.7803 64.2677 70.6284C63.6075 70.3235 62.9061 70.1124 62.1847 70.0012L54.8416 83.7993L47.7043 83.3926ZM52.2216 47.3491C51.8552 49.799 52.1413 50.3429 54.4652 50.0979C58.074 49.7157 60.7341 51.2788 63.1082 53.5768C63.3087 53.8107 63.4497 54.0875 63.5195 54.3848C63.5893 54.682 63.5859 54.9911 63.5098 55.2869C62.5812 57.335 61.4418 59.2852 60.4531 61.304C59.9511 62.3231 59.6098 63.4158 59.2836 64.2439C62.3252 66.145 64.9553 67.6738 67.4197 69.4427C67.8664 69.766 67.9216 71.1527 67.6205 71.8191C66.8174 73.5831 65.7232 75.249 64.609 77.1453H67.6205C68.1776 76.0526 68.6745 75.0775 69.1714 74.1123C69.6683 73.147 70.3409 72.2307 70.6169 71.2115C70.893 70.1923 71.2042 68.7028 70.6872 68.1638C69.4374 66.8653 67.7711 65.9098 66.1699 64.9936C64.4734 64.0136 64.3229 63.4158 65.5225 61.642C66.0347 60.8403 66.4587 59.9879 66.7873 59.099C67.3344 57.7025 68.529 57.1097 69.7336 57.8545C70.9382 58.5992 72.0625 59.5939 73.3223 60.3044C73.941 60.5765 74.6451 60.5977 75.2798 60.3632C76.4643 59.9124 77.4932 58.9667 78.6979 58.6972C80.0932 58.3836 80.6052 57.776 80.555 56.7716C80.5434 56.616 80.4925 56.4657 80.407 56.334C80.3215 56.2023 80.204 56.0933 80.0649 56.0167C79.9258 55.94 79.7694 55.8982 79.6097 55.8948C79.45 55.8914 79.292 55.9267 79.1496 55.9974C78.9776 56.0785 78.81 56.1685 78.6477 56.2669C76.4392 57.6094 74.1304 57.7369 72.4038 56.5021C68.6896 53.8561 64.9904 51.1808 61.2561 48.5496C60.5735 48.0596 59.7905 47.4618 59.0176 47.4128C56.7539 47.2511 54.4752 47.3491 52.2316 47.3491H52.2216ZM76.369 46.5112C76.6099 44.1152 73.5833 41.6505 71.3096 41.5036C68.7097 41.3321 66.712 43.5664 66.6919 46.4034C66.6919 49.3434 68.544 51.4111 71.2092 51.4307C73.6536 51.4601 76.3539 48.8583 76.369 46.5112ZM57.6925 66.9437C57.1504 67.9531 56.6585 68.8351 56.1867 69.7367C54.5806 72.902 52.9594 76.0624 51.4084 79.2571C51.314 79.4944 51.274 79.749 51.2914 80.003C51.3087 80.257 51.3829 80.5042 51.5088 80.7271C51.6968 80.8503 51.9135 80.9253 52.139 80.945C52.3645 80.9647 52.5914 80.9285 52.7988 80.8398C53.7384 79.8847 54.565 78.8295 55.2632 77.6941C56.6385 75.2441 57.828 72.7452 59.1481 70.2904C60.2071 68.3157 59.7253 67.0907 57.6925 66.9339V66.9437Z" fill="black"/>
<path d="M44.743 1.15795V18.6456C43.9399 18.7044 43.2372 18.7779 42.4793 18.8073C40.5319 18.871 39.9396 19.459 39.8693 21.4189C39.7188 25.5103 39.784 29.6213 39.3423 33.6686C39.001 36.8046 37.8717 39.7886 36.5416 42.7432C35.1412 45.8547 33.5301 48.7995 31.2514 51.2641C28.7707 53.8555 26.1037 56.2707 23.2708 58.4915C20.1639 61.01 16.3594 62.4849 12.5899 63.553C8.82053 64.6212 4.73991 64.7388 0.40332 65.3219V62.5828C0.40332 42.9049 0.40332 23.2254 0.40332 3.54419C0.40332 1.09425 0.40332 1.05995 2.91292 1.05505C16.2105 1.05505 29.503 1.05505 42.7905 1.05505C43.3627 1.07465 43.9198 1.12365 44.743 1.15795ZM2.85772 40.6314V49.7648C2.85772 53.1947 2.83262 56.6246 2.85772 60.0153C2.85772 61.8675 3.40982 62.0684 5.21674 62.0536C8.6801 62.0487 12.0965 61.271 15.205 59.7801C17.574 58.6385 20.3246 57.9329 22.2319 56.2816C25.5696 53.3956 29.2587 50.7251 31.3668 46.6631C32.9629 43.5566 34.8501 40.553 36.0848 37.3191C36.9431 35.0651 37.0887 32.5025 37.2443 30.0623C37.435 27.1518 37.2443 24.2217 37.3698 21.3063C37.43 19.8363 36.918 19.3953 35.4223 19.4051C25.3638 19.4606 15.3087 19.4606 5.2569 19.4051C3.40481 19.4051 2.80753 20.0568 2.8276 21.811C2.90289 28.0779 2.85772 34.3546 2.85772 40.6314ZM42.5998 16.4505C42.5998 12.4522 42.5998 8.73807 42.5998 5.01906C42.5998 3.74019 41.8118 3.4854 40.7276 3.4903C28.9024 3.4903 17.0805 3.4903 5.26191 3.4903C3.6909 3.4903 2.79748 4.20077 2.83764 5.89123C2.89787 8.62047 2.83764 11.3497 2.83764 14.0838C2.83764 16.4064 2.87277 16.4358 5.34724 16.4358H42.5797L42.5998 16.4505Z" fill="black"/>
<path d="M58.9874 21.6101C58.7314 21.6127 58.4818 21.5314 58.2786 21.3792C58.0755 21.227 57.9305 21.0126 57.8669 20.7704C57.8033 20.5283 57.8247 20.2722 57.9278 20.0434C58.0308 19.8145 58.2096 19.626 58.4353 19.508C60.1067 18.6372 61.4889 17.319 62.4197 15.7081C63.3506 14.0973 63.7914 12.2607 63.6904 10.4138C63.3441 5.20526 58.6411 2.67201 58.4404 2.57401C58.2984 2.50991 58.1714 2.41808 58.0672 2.30417C57.963 2.19026 57.8838 2.0567 57.8346 1.91175C57.7853 1.7668 57.767 1.61354 57.7808 1.46142C57.7946 1.3093 57.8403 1.16156 57.9148 1.02732C57.9894 0.893091 58.0914 0.775205 58.2145 0.680963C58.3376 0.586721 58.4792 0.518121 58.6305 0.479393C58.7819 0.440665 58.9397 0.432633 59.0943 0.455797C59.2489 0.47896 59.3971 0.532821 59.5295 0.614062C59.7755 0.741459 65.5526 3.85289 65.9792 10.2815C66.1054 12.5521 65.5668 14.8107 64.4265 16.7934C63.2861 18.7761 61.5911 20.4009 59.5396 21.4777C59.3695 21.5655 59.1798 21.611 58.9874 21.6101Z" fill="black"/>
<path d="M54.3949 20.3949C54.1392 20.3964 53.8904 20.3143 53.6882 20.1617C53.4859 20.009 53.3418 19.7947 53.2788 19.5528C53.2159 19.3109 53.2377 19.0554 53.3408 18.8271C53.4439 18.5987 53.6224 18.4106 53.8478 18.2928C55.2061 17.5842 56.3293 16.5123 57.0858 15.2027C57.8423 13.8932 58.2008 12.4002 58.1192 10.8989C57.8381 6.6654 54.0134 4.61235 53.8528 4.52905C53.7085 4.4667 53.5789 4.37586 53.4722 4.26226C53.3656 4.14866 53.2842 4.01475 53.2331 3.86894C53.182 3.72314 53.1624 3.56861 53.1754 3.41504C53.1885 3.26147 53.2339 3.1122 53.309 2.97661C53.384 2.84102 53.4869 2.72203 53.6112 2.62715C53.7356 2.53227 53.8788 2.46354 54.0317 2.42527C54.1846 2.38699 54.3439 2.38001 54.4997 2.40477C54.6555 2.42952 54.8044 2.48547 54.937 2.5691C55.1427 2.6818 60.0465 5.31303 60.4029 10.7715C60.5133 12.6983 60.0582 14.6159 59.0908 16.2989C58.1235 17.9819 56.6841 19.3604 54.942 20.2724C54.7729 20.3571 54.5849 20.3992 54.3949 20.3949Z" fill="black"/>
<path d="M50.1034 18.4693C49.8478 18.4708 49.5989 18.3887 49.3967 18.2361C49.1944 18.0835 49.0503 17.8691 48.9873 17.6272C48.9244 17.3854 48.9462 17.1298 49.0493 16.9015C49.1524 16.6731 49.3309 16.485 49.5563 16.3672C50.5363 15.8582 51.347 15.0865 51.8929 14.1429C52.4389 13.1994 52.6974 12.1232 52.6381 11.0411C52.4373 7.99823 49.6768 6.51357 49.5613 6.44987C49.4193 6.38576 49.2923 6.29393 49.1881 6.18002C49.0839 6.06611 49.0048 5.93255 48.9555 5.7876C48.9063 5.64265 48.888 5.48939 48.9018 5.33727C48.9156 5.18515 48.9612 5.03741 49.0358 4.90318C49.1104 4.76894 49.2124 4.65106 49.3355 4.55682C49.4586 4.46258 49.6002 4.39398 49.7515 4.35525C49.9028 4.31652 50.0607 4.30849 50.2153 4.33165C50.3699 4.35481 50.518 4.40868 50.6505 4.48992C50.8111 4.57811 54.6408 6.64098 54.9269 10.9088C55.0115 12.4164 54.6542 13.9164 53.8968 15.2329C53.1394 16.5494 52.0133 17.6278 50.6505 18.3419C50.4821 18.4289 50.2939 18.4728 50.1034 18.4693Z" fill="black"/>
<path d="M46.9565 63.2101H28.4858C28.1823 63.2101 27.8912 63.0924 27.6766 62.8829C27.462 62.6734 27.3414 62.3892 27.3414 62.0929C27.3414 61.7966 27.462 61.5125 27.6766 61.303C27.8912 61.0935 28.1823 60.9758 28.4858 60.9758H46.9565C47.26 60.9758 47.5511 61.0935 47.7657 61.303C47.9803 61.5125 48.1009 61.7966 48.1009 62.0929C48.1009 62.3892 47.9803 62.6734 47.7657 62.8829C47.5511 63.0924 47.26 63.2101 46.9565 63.2101Z" fill="black"/>
<path d="M42.6298 70.9813H24.1592C23.8681 70.9624 23.5953 70.8363 23.3959 70.6284C23.1966 70.4205 23.0857 70.1464 23.0857 69.8616C23.0857 69.5769 23.1966 69.3027 23.3959 69.0948C23.5953 68.8869 23.8681 68.7608 24.1592 68.742H42.6298C42.9209 68.7608 43.1938 68.8869 43.3931 69.0948C43.5924 69.3027 43.7033 69.5769 43.7033 69.8616C43.7033 70.1464 43.5924 70.4205 43.3931 70.6284C43.1938 70.8363 42.9209 70.9624 42.6298 70.9813Z" fill="black"/>
<path d="M38.6346 78.5612H20.1639C19.8729 78.5424 19.6 78.4163 19.4007 78.2084C19.2014 78.0005 19.0905 77.7264 19.0905 77.4416C19.0905 77.1569 19.2014 76.8828 19.4007 76.6749C19.6 76.467 19.8729 76.3408 20.1639 76.322H38.6346C38.9257 76.3408 39.1985 76.467 39.3978 76.6749C39.5972 76.8828 39.7081 77.1569 39.7081 77.4416C39.7081 77.7264 39.5972 78.0005 39.3978 78.2084C39.1985 78.4163 38.9257 78.5424 38.6346 78.5612Z" fill="black"/>
</svg>
