<svg width="22" height="24" viewBox="0 0 22 24" fill="none" xmlns="http://www.w3.org/2000/svg">
<path d="M10.9682 12C14.2772 12 16.9682 9.309 16.9682 6C16.9682 2.691 14.2772 0 10.9682 0C7.65923 0 4.96823 2.691 4.96823 6C4.96823 9.309 7.65923 12 10.9682 12ZM10.9682 2C13.1742 2 14.9682 3.794 14.9682 6C14.9682 8.206 13.1742 10 10.9682 10C8.76223 10 6.96823 8.206 6.96823 6C6.96823 3.794 8.76223 2 10.9682 2ZM16.9682 24H14.9682C14.9682 21.794 13.1742 20 10.9682 20C8.76223 20 6.96823 21.794 6.96823 24H4.96823C4.96823 20.691 7.65923 18 10.9682 18C14.2772 18 16.9682 20.691 16.9682 24ZM21.4682 24H19.5072L17.5422 17.538C17.1152 16.044 15.7312 15 14.1772 15H7.82423C6.27023 15 4.88623 16.044 4.45823 17.538L2.70923 24H0.532227L2.53523 16.989C3.20623 14.64 5.38123 13 7.82423 13H14.1772C16.6192 13 18.7942 14.64 19.4662 16.989L21.4682 24Z" fill="black"/>
</svg>
