<svg width="58" height="50" viewBox="0 0 58 50" fill="none" xmlns="http://www.w3.org/2000/svg">
<path d="M57.201 7.74987C57.1927 3.5002 55.0579 0.852374 51.624 0.837215C37.1851 0.786684 22.2332 0.786684 5.91189 0.837215C2.46973 0.847321 0.310104 3.38903 0.281144 7.46689C0.194262 18.8414 0.194258 30.499 0.277003 43.0913C0.289414 44.9155 0.87275 46.6032 1.91947 47.8412C2.97032 49.0792 4.38939 49.7564 5.93671 49.7564C5.9905 49.7564 6.04429 49.7564 6.09807 49.7564C11.4351 49.5947 16.8672 49.625 22.1256 49.6553C24.2853 49.6705 26.4449 49.6806 28.6045 49.6806C28.6169 49.6806 28.6293 49.6806 28.6418 49.6806H35.3151C40.7431 49.6806 46.1711 49.6856 51.5992 49.6755C54.9958 49.6654 57.1968 46.9974 57.2051 42.869C57.2175 32.1412 57.2217 20.6555 57.201 7.74987ZM4.2115 41.3884V8.90196C4.72865 9.51339 5.22511 10.0995 5.70503 10.6655C6.93792 12.1258 8.06739 13.4548 9.1803 14.7989C10.0905 15.9005 10.9965 17.0071 11.9026 18.1188C13.4333 19.9986 15.0179 21.939 16.6107 23.8036C17.1362 24.4201 17.3637 24.8597 17.3678 25.274C17.372 25.6833 17.1568 26.1381 16.6935 26.7041C13.7147 30.3625 10.7483 34.1473 7.87707 37.8108C6.82622 39.1499 5.7795 40.489 4.72451 41.823L4.2115 41.3884ZM48.5583 8.03284C47.0069 9.98839 45.5423 11.8328 44.0529 13.6468C42.8159 15.1527 41.5457 16.6686 40.3129 18.134C38.0829 20.7869 35.7743 23.5257 33.6064 26.3402C31.9474 28.4929 30.3628 29.5439 28.7617 29.5439H28.7576C27.1565 29.5439 25.5678 28.4979 23.8964 26.3402C20.4666 21.9137 16.83 17.5883 13.3134 13.4043C11.6792 11.4588 9.98705 9.4477 8.34043 7.45172C8.04255 7.08789 7.77778 6.67859 7.44681 6.15812C7.34338 5.99642 7.23579 5.82967 7.11581 5.64775H50.4532C49.7995 6.46636 49.1706 7.25971 48.5583 8.03284ZM9.08513 42.0099C10.8393 39.9735 12.6556 37.8664 14.4304 35.7744L15.2041 34.8648C16.5487 33.2883 17.9346 31.6612 19.1965 29.9381C19.6557 29.3115 20.057 29.0032 20.4294 29.0032H20.4335C20.8183 29.0032 21.2196 29.3115 21.7326 29.9987C23.8343 32.8183 25.9733 34.1422 28.4721 34.1675C31.3558 34.1978 33.6561 32.9295 35.4599 30.2918C36.0101 29.4883 36.4818 29.1043 36.9493 29.079C37.4416 29.0588 37.9712 29.4176 38.6207 30.2261C41.4506 33.738 44.4046 37.2044 47.2675 40.5597C48.3722 41.8533 49.4727 43.1469 50.5732 44.4455L50.2918 44.9812H7.18202L6.94205 44.5112C7.64952 43.6724 8.36939 42.8437 9.08513 42.0099ZM40.8134 26.5828C40.4618 26.0724 40.3418 24.5919 40.619 24.2179C43.7467 20.0188 47.0027 15.8298 50.1511 11.7822C50.9745 10.7261 51.7978 9.66497 52.6169 8.60887L53.2623 9.16979V41.6613L50.8297 38.7507C48.7983 36.3151 46.891 34.0311 44.9838 31.7471C44.6156 31.3024 44.2432 30.8678 43.8667 30.4333C42.8283 29.2053 41.7485 27.9471 40.8134 26.5828Z" fill="black"/>
</svg>
