<svg width="46" height="42" viewBox="0 0 46 42" fill="none" xmlns="http://www.w3.org/2000/svg">
<path d="M33.1112 0.659546C31.0007 0.691617 28.9362 1.2672 27.1263 2.32817C25.3163 3.38914 23.825 4.89792 22.8029 6.70215C21.7807 4.89792 20.2894 3.38914 18.4794 2.32817C16.6695 1.2672 14.605 0.691617 12.4945 0.659546C9.13014 0.802354 5.96035 2.24024 3.67766 4.65908C1.39498 7.07791 0.184949 10.2811 0.31193 13.5688C0.31193 25.9744 20.8461 40.3027 21.7195 40.9106L22.8029 41.6595L23.8862 40.9106C24.7596 40.3064 45.2938 25.9744 45.2938 13.5688C45.4208 10.2811 44.2107 7.07791 41.9281 4.65908C39.6454 2.24024 36.4756 0.802354 33.1112 0.659546ZM22.8029 37.1514C16.7059 32.7018 4.06042 21.7702 4.06042 13.5688C3.9323 11.2519 4.74708 8.97954 6.32706 7.24727C7.90704 5.515 10.124 4.46337 12.4945 4.32173C14.865 4.46337 17.082 5.515 18.662 7.24727C20.242 8.97954 21.0567 11.2519 20.9286 13.5688H24.6771C24.549 11.2519 25.3638 8.97954 26.9437 7.24727C28.5237 5.515 30.7407 4.46337 33.1112 4.32173C35.4817 4.46337 37.6987 5.515 39.2787 7.24727C40.8586 8.97954 41.6734 11.2519 41.5453 13.5688C41.5453 21.7739 28.8998 32.7018 22.8029 37.1514Z" fill="#ED2028"/>
</svg>
