<svg width="26" height="37" viewBox="0 0 26 37" fill="none" xmlns="http://www.w3.org/2000/svg">
<path d="M13 36.2737L12.0982 35.3716C10.855 34.1568 0 23.2161 0 15.2132C0 6.83425 5.82031 0.041748 13 0.041748C20.1797 0.041748 26 6.83425 26 15.2132C26 23.2161 15.145 34.1568 13.9069 35.3776L13 36.2737ZM13 3.32226C7.37543 3.32969 2.81741 8.64906 2.81104 15.2131C2.81104 20.2407 9.48947 28.2722 13 31.9481C16.5106 28.2707 23.189 20.2346 23.189 15.2131C23.1826 8.64906 18.6246 3.32976 13 3.32226Z" fill="#003066"/>
<path d="M12.9998 21.227C10.1538 21.227 7.84668 18.5345 7.84668 15.2132C7.84668 11.8918 10.1538 9.19934 12.9998 9.19934C15.8457 9.19934 18.1529 11.8918 18.1529 15.2132C18.1529 18.5345 15.8458 21.227 12.9998 21.227ZM12.9998 12.2062C11.5768 12.2062 10.4232 13.5524 10.4232 15.2131C10.4232 16.8738 11.5768 18.22 12.9998 18.22C14.4228 18.22 15.5763 16.8738 15.5763 15.2131C15.5763 13.5524 14.4228 12.2062 12.9998 12.2062Z" fill="#003066"/>
</svg>
