<svg width="22" height="24" viewBox="0 0 22 24" fill="none" xmlns="http://www.w3.org/2000/svg">
<path d="M10.7703 12.1595C14.0892 12.1595 16.7883 9.58067 16.7883 6.40955C16.7883 3.23842 14.0892 0.659546 10.7703 0.659546C7.4513 0.659546 4.7522 3.23842 4.7522 6.40955C4.7522 9.58067 7.4513 12.1595 10.7703 12.1595ZM10.7703 2.57621C12.9829 2.57621 14.7823 4.29546 14.7823 6.40955C14.7823 8.52363 12.9829 10.2429 10.7703 10.2429C8.55762 10.2429 6.75822 8.52363 6.75822 6.40955C6.75822 4.29546 8.55762 2.57621 10.7703 2.57621ZM16.7883 23.6595H14.7823C14.7823 21.5455 12.9829 19.8262 10.7703 19.8262C8.55762 19.8262 6.75822 21.5455 6.75822 23.6595H4.7522C4.7522 20.4884 7.4513 17.9095 10.7703 17.9095C14.0892 17.9095 16.7883 20.4884 16.7883 23.6595ZM21.3019 23.6595H19.335L17.364 17.4668C16.9358 16.035 15.5476 15.0345 13.9889 15.0345H7.6168C6.05812 15.0345 4.66996 16.035 4.24067 17.4668L2.48641 23.6595H0.302856L2.31188 16.9407C2.9849 14.6895 5.16645 13.1179 7.6168 13.1179H13.9889C16.4383 13.1179 18.6198 14.6895 19.2938 16.9407L21.3019 23.6595Z" fill="black"/>
</svg>
